<mxfile host="Electron" agent="Mozilla/5.0 (X11; Linux x86_64) AppleWebKit/537.36 (KHTML, like Gecko) draw.io/26.0.16 Chrome/132.0.6834.196 Electron/34.2.0 Safari/537.36" version="26.0.16">
  <diagram name="Page-1" id="3XDOht_fUMD2ESFrQRHr">
    <mxGraphModel dx="12980" dy="23800" grid="1" gridSize="10" guides="1" tooltips="1" connect="1" arrows="1" fold="1" page="1" pageScale="1" pageWidth="850" pageHeight="6000" math="0" shadow="0">
      <root>
        <mxCell id="0" />
        <mxCell id="1" parent="0" />
        <mxCell id="VeroT_hqkS72Edddchhl-4" value="" style="rounded=0;whiteSpace=wrap;html=1;fillColor=#6600CC;strokeColor=#6D1F00;fontColor=#ffffff;opacity=30;" vertex="1" parent="1">
          <mxGeometry x="-920" y="270" width="2400" height="730" as="geometry" />
        </mxCell>
        <mxCell id="VeroT_hqkS72Edddchhl-2" value="" style="rounded=0;whiteSpace=wrap;html=1;fillColor=light-dark(#00fbff, #575700);strokeColor=#6D1F00;fontColor=#ffffff;opacity=30;" vertex="1" parent="1">
          <mxGeometry x="-920" y="1657" width="1300" height="563" as="geometry" />
        </mxCell>
        <mxCell id="VeroT_hqkS72Edddchhl-1" value="" style="rounded=0;whiteSpace=wrap;html=1;fillColor=#00FF00;strokeColor=#6D1F00;fontColor=#ffffff;opacity=30;" vertex="1" parent="1">
          <mxGeometry x="120" y="1070" width="1360" height="550" as="geometry" />
        </mxCell>
        <mxCell id="Oj0tfPcwTxOMNZWfFIPI-53" value="" style="rounded=0;whiteSpace=wrap;html=1;fillColor=#fad7ac;strokeColor=#b46504;opacity=80;" parent="1" vertex="1">
          <mxGeometry x="-442.3800000000001" y="563" width="320" height="313" as="geometry" />
        </mxCell>
        <mxCell id="Oj0tfPcwTxOMNZWfFIPI-5" value="" style="image;aspect=fixed;perimeter=ellipsePerimeter;html=1;align=center;shadow=0;dashed=0;spacingTop=3;image=img/lib/active_directory/internet_cloud.svg;" parent="1" vertex="1">
          <mxGeometry x="211.38" y="90" width="95.24" height="60" as="geometry" />
        </mxCell>
        <mxCell id="Oj0tfPcwTxOMNZWfFIPI-7" value="" style="sketch=0;points=[[0.015,0.015,0],[0.985,0.015,0],[0.985,0.985,0],[0.015,0.985,0],[0.25,0,0],[0.5,0,0],[0.75,0,0],[1,0.25,0],[1,0.5,0],[1,0.75,0],[0.75,1,0],[0.5,1,0],[0.25,1,0],[0,0.75,0],[0,0.5,0],[0,0.25,0]];verticalLabelPosition=bottom;html=1;verticalAlign=top;aspect=fixed;align=center;pointerEvents=1;shape=mxgraph.cisco19.rect;prIcon=l3_switch;fillColor=#FAFAFA;strokeColor=#005073;" parent="1" vertex="1">
          <mxGeometry x="234" y="387" width="50" height="50" as="geometry" />
        </mxCell>
        <mxCell id="Oj0tfPcwTxOMNZWfFIPI-9" value="" style="sketch=0;aspect=fixed;pointerEvents=1;shadow=0;dashed=0;html=1;strokeColor=none;labelPosition=center;verticalLabelPosition=bottom;verticalAlign=top;align=center;fillColor=#00188D;shape=mxgraph.mscae.enterprise.firewall" parent="1" vertex="1">
          <mxGeometry x="234" y="198" width="50" height="44" as="geometry" />
        </mxCell>
        <mxCell id="Oj0tfPcwTxOMNZWfFIPI-11" value="" style="sketch=0;points=[[0.5,0,0],[1,0.5,0],[0.5,1,0],[0,0.5,0],[0.145,0.145,0],[0.8555,0.145,0],[0.855,0.8555,0],[0.145,0.855,0]];verticalLabelPosition=bottom;html=1;verticalAlign=top;aspect=fixed;align=center;pointerEvents=1;shape=mxgraph.cisco19.rect;prIcon=router;fillColor=#FAFAFA;strokeColor=#005073;" parent="1" vertex="1">
          <mxGeometry x="234" y="310" width="50" height="50" as="geometry" />
        </mxCell>
        <mxCell id="Oj0tfPcwTxOMNZWfFIPI-15" value="Internet" style="text;html=1;align=center;verticalAlign=middle;resizable=0;points=[];autosize=1;strokeColor=none;fillColor=none;" parent="1" vertex="1">
          <mxGeometry x="306.62" y="120" width="60" height="30" as="geometry" />
        </mxCell>
        <mxCell id="Oj0tfPcwTxOMNZWfFIPI-16" value="Firewall" style="text;html=1;align=center;verticalAlign=middle;resizable=0;points=[];autosize=1;strokeColor=none;fillColor=none;" parent="1" vertex="1">
          <mxGeometry x="293" y="244" width="60" height="30" as="geometry" />
        </mxCell>
        <mxCell id="Oj0tfPcwTxOMNZWfFIPI-17" value="Router (HQ)" style="text;html=1;align=center;verticalAlign=middle;resizable=0;points=[];autosize=1;strokeColor=none;fillColor=none;" parent="1" vertex="1">
          <mxGeometry x="284" y="350" width="90" height="30" as="geometry" />
        </mxCell>
        <mxCell id="Oj0tfPcwTxOMNZWfFIPI-18" value="L3 switch" style="text;html=1;align=center;verticalAlign=middle;resizable=0;points=[];autosize=1;strokeColor=none;fillColor=none;" parent="1" vertex="1">
          <mxGeometry x="294" y="430" width="70" height="30" as="geometry" />
        </mxCell>
        <mxCell id="Oj0tfPcwTxOMNZWfFIPI-22" value="" style="endArrow=none;html=1;rounded=0;exitX=0.5;exitY=0;exitDx=0;exitDy=0;exitPerimeter=0;strokeWidth=3;" parent="1" source="Oj0tfPcwTxOMNZWfFIPI-9" target="Oj0tfPcwTxOMNZWfFIPI-5" edge="1">
          <mxGeometry width="50" height="50" relative="1" as="geometry">
            <mxPoint x="259" y="200" as="sourcePoint" />
            <mxPoint x="309" y="150" as="targetPoint" />
          </mxGeometry>
        </mxCell>
        <mxCell id="Oj0tfPcwTxOMNZWfFIPI-24" value="" style="endArrow=none;html=1;rounded=0;exitX=0.5;exitY=0;exitDx=0;exitDy=0;exitPerimeter=0;strokeWidth=3;entryX=0.5;entryY=1;entryDx=0;entryDy=0;entryPerimeter=0;" parent="1" source="Oj0tfPcwTxOMNZWfFIPI-11" target="Oj0tfPcwTxOMNZWfFIPI-9" edge="1">
          <mxGeometry width="50" height="50" relative="1" as="geometry">
            <mxPoint x="269" y="250" as="sourcePoint" />
            <mxPoint x="269" y="160" as="targetPoint" />
          </mxGeometry>
        </mxCell>
        <mxCell id="Oj0tfPcwTxOMNZWfFIPI-26" value="" style="endArrow=none;html=1;rounded=0;exitX=0.5;exitY=1;exitDx=0;exitDy=0;exitPerimeter=0;strokeWidth=3;entryX=0.5;entryY=0;entryDx=0;entryDy=0;entryPerimeter=0;" parent="1" source="Oj0tfPcwTxOMNZWfFIPI-11" target="Oj0tfPcwTxOMNZWfFIPI-7" edge="1">
          <mxGeometry width="50" height="50" relative="1" as="geometry">
            <mxPoint x="269" y="320" as="sourcePoint" />
            <mxPoint x="269" y="294" as="targetPoint" />
          </mxGeometry>
        </mxCell>
        <mxCell id="Oj0tfPcwTxOMNZWfFIPI-35" value="printer" style="text;html=1;align=center;verticalAlign=middle;resizable=0;points=[];autosize=1;strokeColor=none;fillColor=none;" parent="1" vertex="1">
          <mxGeometry x="70" y="698" width="60" height="30" as="geometry" />
        </mxCell>
        <mxCell id="Oj0tfPcwTxOMNZWfFIPI-36" value="pc" style="text;html=1;align=center;verticalAlign=middle;resizable=0;points=[];autosize=1;strokeColor=none;fillColor=none;" parent="1" vertex="1">
          <mxGeometry x="-80" y="698" width="40" height="30" as="geometry" />
        </mxCell>
        <mxCell id="Oj0tfPcwTxOMNZWfFIPI-55" value="" style="rounded=0;whiteSpace=wrap;html=1;fillColor=#fff2cc;strokeColor=#d6b656;opacity=80;" parent="1" vertex="1">
          <mxGeometry x="277.62" y="641" width="320" height="313" as="geometry" />
        </mxCell>
        <mxCell id="Oj0tfPcwTxOMNZWfFIPI-56" value="" style="rounded=0;whiteSpace=wrap;html=1;fillColor=#bac8d3;strokeColor=#23445d;opacity=80;" parent="1" vertex="1">
          <mxGeometry x="-80" y="641" width="320" height="313" as="geometry" />
        </mxCell>
        <mxCell id="Oj0tfPcwTxOMNZWfFIPI-57" value="" style="rounded=0;whiteSpace=wrap;html=1;fillColor=#b1ddf0;strokeColor=#10739e;opacity=80;" parent="1" vertex="1">
          <mxGeometry x="637.62" y="563" width="320" height="313" as="geometry" />
        </mxCell>
        <mxCell id="Oj0tfPcwTxOMNZWfFIPI-58" value="" style="rounded=0;whiteSpace=wrap;html=1;fillColor=#e1d5e7;strokeColor=#9673a6;opacity=80;" parent="1" vertex="1">
          <mxGeometry x="997.62" y="483" width="320" height="313" as="geometry" />
        </mxCell>
        <mxCell id="Oj0tfPcwTxOMNZWfFIPI-59" value="" style="rounded=0;whiteSpace=wrap;html=1;fillColor=#b0e3e6;strokeColor=#0e8088;opacity=80;" parent="1" vertex="1">
          <mxGeometry x="-802.3800000000001" y="483" width="320" height="313" as="geometry" />
        </mxCell>
        <mxCell id="Oj0tfPcwTxOMNZWfFIPI-74" style="edgeStyle=orthogonalEdgeStyle;rounded=0;orthogonalLoop=1;jettySize=auto;html=1;entryX=0.25;entryY=1;entryDx=0;entryDy=0;entryPerimeter=0;endArrow=none;startFill=0;strokeWidth=2;" parent="1" source="Oj0tfPcwTxOMNZWfFIPI-60" target="Oj0tfPcwTxOMNZWfFIPI-7" edge="1">
          <mxGeometry relative="1" as="geometry">
            <Array as="points">
              <mxPoint x="75" y="560" />
              <mxPoint x="247" y="560" />
            </Array>
          </mxGeometry>
        </mxCell>
        <mxCell id="Oj0tfPcwTxOMNZWfFIPI-109" style="edgeStyle=orthogonalEdgeStyle;rounded=0;orthogonalLoop=1;jettySize=auto;html=1;exitX=0.25;exitY=1;exitDx=0;exitDy=0;exitPerimeter=0;endArrow=none;startFill=0;" parent="1" source="Oj0tfPcwTxOMNZWfFIPI-60" target="Oj0tfPcwTxOMNZWfFIPI-105" edge="1">
          <mxGeometry relative="1" as="geometry" />
        </mxCell>
        <mxCell id="Oj0tfPcwTxOMNZWfFIPI-110" style="edgeStyle=orthogonalEdgeStyle;rounded=0;orthogonalLoop=1;jettySize=auto;html=1;exitX=0.5;exitY=1;exitDx=0;exitDy=0;exitPerimeter=0;endArrow=none;startFill=0;" parent="1" source="Oj0tfPcwTxOMNZWfFIPI-60" target="Oj0tfPcwTxOMNZWfFIPI-103" edge="1">
          <mxGeometry relative="1" as="geometry">
            <Array as="points">
              <mxPoint x="75" y="870" />
            </Array>
          </mxGeometry>
        </mxCell>
        <mxCell id="Oj0tfPcwTxOMNZWfFIPI-111" style="edgeStyle=orthogonalEdgeStyle;rounded=0;orthogonalLoop=1;jettySize=auto;html=1;exitX=0.75;exitY=1;exitDx=0;exitDy=0;exitPerimeter=0;endArrow=none;startFill=0;" parent="1" source="Oj0tfPcwTxOMNZWfFIPI-60" target="Oj0tfPcwTxOMNZWfFIPI-104" edge="1">
          <mxGeometry relative="1" as="geometry">
            <Array as="points">
              <mxPoint x="87" y="770" />
            </Array>
          </mxGeometry>
        </mxCell>
        <mxCell id="Oj0tfPcwTxOMNZWfFIPI-60" value="" style="sketch=0;points=[[0.015,0.015,0],[0.985,0.015,0],[0.985,0.985,0],[0.015,0.985,0],[0.25,0,0],[0.5,0,0],[0.75,0,0],[1,0.25,0],[1,0.5,0],[1,0.75,0],[0.75,1,0],[0.5,1,0],[0.25,1,0],[0,0.75,0],[0,0.5,0],[0,0.25,0]];verticalLabelPosition=bottom;html=1;verticalAlign=top;aspect=fixed;align=center;pointerEvents=1;shape=mxgraph.cisco19.rect;prIcon=l2_switch;fillColor=#FAFAFA;strokeColor=#005073;" parent="1" vertex="1">
          <mxGeometry x="50" y="668" width="50" height="50" as="geometry" />
        </mxCell>
        <mxCell id="Oj0tfPcwTxOMNZWfFIPI-61" value="L2 switch" style="text;html=1;align=center;verticalAlign=middle;resizable=0;points=[];autosize=1;strokeColor=none;fillColor=none;" parent="1" vertex="1">
          <mxGeometry x="100" y="688" width="70" height="30" as="geometry" />
        </mxCell>
        <mxCell id="Oj0tfPcwTxOMNZWfFIPI-117" style="edgeStyle=orthogonalEdgeStyle;rounded=0;orthogonalLoop=1;jettySize=auto;html=1;exitX=0.5;exitY=1;exitDx=0;exitDy=0;exitPerimeter=0;endArrow=none;startFill=0;" parent="1" source="Oj0tfPcwTxOMNZWfFIPI-62" target="Oj0tfPcwTxOMNZWfFIPI-114" edge="1">
          <mxGeometry relative="1" as="geometry" />
        </mxCell>
        <mxCell id="Oj0tfPcwTxOMNZWfFIPI-119" style="edgeStyle=orthogonalEdgeStyle;rounded=0;orthogonalLoop=1;jettySize=auto;html=1;exitX=0.75;exitY=1;exitDx=0;exitDy=0;exitPerimeter=0;endArrow=none;startFill=0;" parent="1" source="Oj0tfPcwTxOMNZWfFIPI-62" target="Oj0tfPcwTxOMNZWfFIPI-113" edge="1">
          <mxGeometry relative="1" as="geometry" />
        </mxCell>
        <mxCell id="Oj0tfPcwTxOMNZWfFIPI-62" value="" style="sketch=0;points=[[0.015,0.015,0],[0.985,0.015,0],[0.985,0.985,0],[0.015,0.985,0],[0.25,0,0],[0.5,0,0],[0.75,0,0],[1,0.25,0],[1,0.5,0],[1,0.75,0],[0.75,1,0],[0.5,1,0],[0.25,1,0],[0,0.75,0],[0,0.5,0],[0,0.25,0]];verticalLabelPosition=bottom;html=1;verticalAlign=top;aspect=fixed;align=center;pointerEvents=1;shape=mxgraph.cisco19.rect;prIcon=l2_switch;fillColor=#FAFAFA;strokeColor=#005073;" parent="1" vertex="1">
          <mxGeometry x="420" y="678" width="50" height="50" as="geometry" />
        </mxCell>
        <mxCell id="Oj0tfPcwTxOMNZWfFIPI-63" value="L2 switch" style="text;html=1;align=center;verticalAlign=middle;resizable=0;points=[];autosize=1;strokeColor=none;fillColor=none;" parent="1" vertex="1">
          <mxGeometry x="470" y="698" width="70" height="30" as="geometry" />
        </mxCell>
        <mxCell id="Oj0tfPcwTxOMNZWfFIPI-137" style="edgeStyle=orthogonalEdgeStyle;rounded=0;orthogonalLoop=1;jettySize=auto;html=1;exitX=0.5;exitY=1;exitDx=0;exitDy=0;exitPerimeter=0;endArrow=none;startFill=0;" parent="1" source="Oj0tfPcwTxOMNZWfFIPI-64" target="Oj0tfPcwTxOMNZWfFIPI-130" edge="1">
          <mxGeometry relative="1" as="geometry" />
        </mxCell>
        <mxCell id="Oj0tfPcwTxOMNZWfFIPI-138" style="edgeStyle=orthogonalEdgeStyle;rounded=0;orthogonalLoop=1;jettySize=auto;html=1;exitX=0.75;exitY=1;exitDx=0;exitDy=0;exitPerimeter=0;endArrow=none;startFill=0;" parent="1" source="Oj0tfPcwTxOMNZWfFIPI-64" target="Oj0tfPcwTxOMNZWfFIPI-123" edge="1">
          <mxGeometry relative="1" as="geometry" />
        </mxCell>
        <mxCell id="Oj0tfPcwTxOMNZWfFIPI-139" style="edgeStyle=orthogonalEdgeStyle;rounded=0;orthogonalLoop=1;jettySize=auto;html=1;exitX=0.25;exitY=1;exitDx=0;exitDy=0;exitPerimeter=0;entryX=0.5;entryY=0;entryDx=0;entryDy=0;endArrow=none;startFill=0;" parent="1" source="Oj0tfPcwTxOMNZWfFIPI-64" target="Oj0tfPcwTxOMNZWfFIPI-129" edge="1">
          <mxGeometry relative="1" as="geometry">
            <Array as="points">
              <mxPoint x="793" y="630" />
              <mxPoint x="698" y="630" />
              <mxPoint x="698" y="640" />
            </Array>
          </mxGeometry>
        </mxCell>
        <mxCell id="Oj0tfPcwTxOMNZWfFIPI-140" style="edgeStyle=orthogonalEdgeStyle;rounded=0;orthogonalLoop=1;jettySize=auto;html=1;exitX=0.25;exitY=1;exitDx=0;exitDy=0;exitPerimeter=0;endArrow=none;startFill=0;" parent="1" source="Oj0tfPcwTxOMNZWfFIPI-64" target="Oj0tfPcwTxOMNZWfFIPI-132" edge="1">
          <mxGeometry relative="1" as="geometry">
            <Array as="points">
              <mxPoint x="793" y="670" />
              <mxPoint x="770" y="670" />
              <mxPoint x="770" y="780" />
              <mxPoint x="700" y="780" />
            </Array>
          </mxGeometry>
        </mxCell>
        <mxCell id="Oj0tfPcwTxOMNZWfFIPI-64" value="" style="sketch=0;points=[[0.015,0.015,0],[0.985,0.015,0],[0.985,0.985,0],[0.015,0.985,0],[0.25,0,0],[0.5,0,0],[0.75,0,0],[1,0.25,0],[1,0.5,0],[1,0.75,0],[0.75,1,0],[0.5,1,0],[0.25,1,0],[0,0.75,0],[0,0.5,0],[0,0.25,0]];verticalLabelPosition=bottom;html=1;verticalAlign=top;aspect=fixed;align=center;pointerEvents=1;shape=mxgraph.cisco19.rect;prIcon=l2_switch;fillColor=#FAFAFA;strokeColor=#005073;" parent="1" vertex="1">
          <mxGeometry x="780" y="600" width="50" height="50" as="geometry" />
        </mxCell>
        <mxCell id="Oj0tfPcwTxOMNZWfFIPI-65" value="L2 switch" style="text;html=1;align=center;verticalAlign=middle;resizable=0;points=[];autosize=1;strokeColor=none;fillColor=none;" parent="1" vertex="1">
          <mxGeometry x="830" y="620" width="70" height="30" as="geometry" />
        </mxCell>
        <mxCell id="Oj0tfPcwTxOMNZWfFIPI-144" style="edgeStyle=orthogonalEdgeStyle;rounded=0;orthogonalLoop=1;jettySize=auto;html=1;exitX=0.5;exitY=1;exitDx=0;exitDy=0;exitPerimeter=0;endArrow=none;startFill=0;" parent="1" source="Oj0tfPcwTxOMNZWfFIPI-66" target="Oj0tfPcwTxOMNZWfFIPI-142" edge="1">
          <mxGeometry relative="1" as="geometry" />
        </mxCell>
        <mxCell id="Oj0tfPcwTxOMNZWfFIPI-145" style="edgeStyle=orthogonalEdgeStyle;rounded=0;orthogonalLoop=1;jettySize=auto;html=1;exitX=0.75;exitY=1;exitDx=0;exitDy=0;exitPerimeter=0;endArrow=none;startFill=0;" parent="1" source="Oj0tfPcwTxOMNZWfFIPI-66" target="Oj0tfPcwTxOMNZWfFIPI-143" edge="1">
          <mxGeometry relative="1" as="geometry" />
        </mxCell>
        <mxCell id="Oj0tfPcwTxOMNZWfFIPI-66" value="" style="sketch=0;points=[[0.015,0.015,0],[0.985,0.015,0],[0.985,0.985,0],[0.015,0.985,0],[0.25,0,0],[0.5,0,0],[0.75,0,0],[1,0.25,0],[1,0.5,0],[1,0.75,0],[0.75,1,0],[0.5,1,0],[0.25,1,0],[0,0.75,0],[0,0.5,0],[0,0.25,0]];verticalLabelPosition=bottom;html=1;verticalAlign=top;aspect=fixed;align=center;pointerEvents=1;shape=mxgraph.cisco19.rect;prIcon=l2_switch;fillColor=#FAFAFA;strokeColor=#005073;" parent="1" vertex="1">
          <mxGeometry x="1135" y="523" width="50" height="50" as="geometry" />
        </mxCell>
        <mxCell id="Oj0tfPcwTxOMNZWfFIPI-67" value="L2 switch" style="text;html=1;align=center;verticalAlign=middle;resizable=0;points=[];autosize=1;strokeColor=none;fillColor=none;" parent="1" vertex="1">
          <mxGeometry x="1185" y="543" width="70" height="30" as="geometry" />
        </mxCell>
        <mxCell id="Oj0tfPcwTxOMNZWfFIPI-73" style="edgeStyle=orthogonalEdgeStyle;rounded=0;orthogonalLoop=1;jettySize=auto;html=1;entryX=0.011;entryY=0.67;entryDx=0;entryDy=0;entryPerimeter=0;endArrow=none;startFill=0;strokeWidth=2;" parent="1" source="Oj0tfPcwTxOMNZWfFIPI-68" target="Oj0tfPcwTxOMNZWfFIPI-7" edge="1">
          <mxGeometry relative="1" as="geometry">
            <mxPoint x="210" y="420" as="targetPoint" />
            <Array as="points">
              <mxPoint x="-275" y="421" />
            </Array>
          </mxGeometry>
        </mxCell>
        <mxCell id="Oj0tfPcwTxOMNZWfFIPI-101" style="edgeStyle=orthogonalEdgeStyle;rounded=0;orthogonalLoop=1;jettySize=auto;html=1;exitX=0.25;exitY=1;exitDx=0;exitDy=0;exitPerimeter=0;endArrow=none;startFill=0;" parent="1" source="Oj0tfPcwTxOMNZWfFIPI-68" target="Oj0tfPcwTxOMNZWfFIPI-94" edge="1">
          <mxGeometry relative="1" as="geometry" />
        </mxCell>
        <mxCell id="Oj0tfPcwTxOMNZWfFIPI-102" style="edgeStyle=orthogonalEdgeStyle;rounded=0;orthogonalLoop=1;jettySize=auto;html=1;exitX=0.75;exitY=1;exitDx=0;exitDy=0;exitPerimeter=0;endArrow=none;startFill=0;" parent="1" source="Oj0tfPcwTxOMNZWfFIPI-68" target="Oj0tfPcwTxOMNZWfFIPI-95" edge="1">
          <mxGeometry relative="1" as="geometry">
            <Array as="points">
              <mxPoint x="-263" y="730" />
            </Array>
          </mxGeometry>
        </mxCell>
        <mxCell id="Oj0tfPcwTxOMNZWfFIPI-68" value="" style="sketch=0;points=[[0.015,0.015,0],[0.985,0.015,0],[0.985,0.985,0],[0.015,0.985,0],[0.25,0,0],[0.5,0,0],[0.75,0,0],[1,0.25,0],[1,0.5,0],[1,0.75,0],[0.75,1,0],[0.5,1,0],[0.25,1,0],[0,0.75,0],[0,0.5,0],[0,0.25,0]];verticalLabelPosition=bottom;html=1;verticalAlign=top;aspect=fixed;align=center;pointerEvents=1;shape=mxgraph.cisco19.rect;prIcon=l2_switch;fillColor=#FAFAFA;strokeColor=#005073;" parent="1" vertex="1">
          <mxGeometry x="-300" y="591" width="50" height="50" as="geometry" />
        </mxCell>
        <mxCell id="Oj0tfPcwTxOMNZWfFIPI-69" value="L2 switch" style="text;html=1;align=center;verticalAlign=middle;resizable=0;points=[];autosize=1;strokeColor=none;fillColor=none;" parent="1" vertex="1">
          <mxGeometry x="-250" y="611" width="70" height="30" as="geometry" />
        </mxCell>
        <mxCell id="Oj0tfPcwTxOMNZWfFIPI-88" style="edgeStyle=orthogonalEdgeStyle;rounded=0;orthogonalLoop=1;jettySize=auto;html=1;exitX=0.25;exitY=1;exitDx=0;exitDy=0;exitPerimeter=0;endArrow=none;startFill=0;" parent="1" source="Oj0tfPcwTxOMNZWfFIPI-70" target="Oj0tfPcwTxOMNZWfFIPI-84" edge="1">
          <mxGeometry relative="1" as="geometry" />
        </mxCell>
        <mxCell id="Oj0tfPcwTxOMNZWfFIPI-89" style="edgeStyle=orthogonalEdgeStyle;rounded=0;orthogonalLoop=1;jettySize=auto;html=1;exitX=0.5;exitY=1;exitDx=0;exitDy=0;exitPerimeter=0;endArrow=none;startFill=0;" parent="1" source="Oj0tfPcwTxOMNZWfFIPI-70" target="Oj0tfPcwTxOMNZWfFIPI-87" edge="1">
          <mxGeometry relative="1" as="geometry" />
        </mxCell>
        <mxCell id="Oj0tfPcwTxOMNZWfFIPI-90" style="edgeStyle=orthogonalEdgeStyle;rounded=0;orthogonalLoop=1;jettySize=auto;html=1;exitX=0.75;exitY=1;exitDx=0;exitDy=0;exitPerimeter=0;endArrow=none;startFill=0;" parent="1" source="Oj0tfPcwTxOMNZWfFIPI-70" target="Oj0tfPcwTxOMNZWfFIPI-86" edge="1">
          <mxGeometry relative="1" as="geometry" />
        </mxCell>
        <mxCell id="Oj0tfPcwTxOMNZWfFIPI-70" value="" style="sketch=0;points=[[0.015,0.015,0],[0.985,0.015,0],[0.985,0.985,0],[0.015,0.985,0],[0.25,0,0],[0.5,0,0],[0.75,0,0],[1,0.25,0],[1,0.5,0],[1,0.75,0],[0.75,1,0],[0.5,1,0],[0.25,1,0],[0,0.75,0],[0,0.5,0],[0,0.25,0]];verticalLabelPosition=bottom;html=1;verticalAlign=top;aspect=fixed;align=center;pointerEvents=1;shape=mxgraph.cisco19.rect;prIcon=l2_switch;fillColor=#FAFAFA;strokeColor=#005073;" parent="1" vertex="1">
          <mxGeometry x="-670" y="527" width="50" height="50" as="geometry" />
        </mxCell>
        <mxCell id="Oj0tfPcwTxOMNZWfFIPI-71" value="L2 switch" style="text;html=1;align=center;verticalAlign=middle;resizable=0;points=[];autosize=1;strokeColor=none;fillColor=none;" parent="1" vertex="1">
          <mxGeometry x="-620" y="547" width="70" height="30" as="geometry" />
        </mxCell>
        <mxCell id="Oj0tfPcwTxOMNZWfFIPI-72" style="edgeStyle=orthogonalEdgeStyle;rounded=0;orthogonalLoop=1;jettySize=auto;html=1;exitX=0.5;exitY=0;exitDx=0;exitDy=0;exitPerimeter=0;entryX=0.001;entryY=0.437;entryDx=0;entryDy=0;entryPerimeter=0;endArrow=none;startFill=0;strokeWidth=2;" parent="1" source="Oj0tfPcwTxOMNZWfFIPI-70" target="Oj0tfPcwTxOMNZWfFIPI-7" edge="1">
          <mxGeometry relative="1" as="geometry">
            <Array as="points">
              <mxPoint x="-645" y="409" />
            </Array>
          </mxGeometry>
        </mxCell>
        <mxCell id="Oj0tfPcwTxOMNZWfFIPI-75" style="edgeStyle=orthogonalEdgeStyle;rounded=0;orthogonalLoop=1;jettySize=auto;html=1;entryX=0.75;entryY=1;entryDx=0;entryDy=0;entryPerimeter=0;endArrow=none;startFill=0;strokeWidth=2;" parent="1" source="Oj0tfPcwTxOMNZWfFIPI-62" target="Oj0tfPcwTxOMNZWfFIPI-7" edge="1">
          <mxGeometry relative="1" as="geometry">
            <Array as="points">
              <mxPoint x="445" y="560" />
              <mxPoint x="270" y="560" />
              <mxPoint x="270" y="437" />
            </Array>
          </mxGeometry>
        </mxCell>
        <mxCell id="Oj0tfPcwTxOMNZWfFIPI-76" style="edgeStyle=orthogonalEdgeStyle;rounded=0;orthogonalLoop=1;jettySize=auto;html=1;entryX=0.99;entryY=0.661;entryDx=0;entryDy=0;entryPerimeter=0;endArrow=none;startFill=0;strokeWidth=2;" parent="1" source="Oj0tfPcwTxOMNZWfFIPI-64" target="Oj0tfPcwTxOMNZWfFIPI-7" edge="1">
          <mxGeometry relative="1" as="geometry">
            <mxPoint x="290" y="450" as="targetPoint" />
            <Array as="points">
              <mxPoint x="805" y="420" />
            </Array>
          </mxGeometry>
        </mxCell>
        <mxCell id="Oj0tfPcwTxOMNZWfFIPI-77" style="edgeStyle=orthogonalEdgeStyle;rounded=0;orthogonalLoop=1;jettySize=auto;html=1;entryX=0.962;entryY=0.429;entryDx=0;entryDy=0;entryPerimeter=0;endArrow=none;startFill=0;strokeWidth=2;" parent="1" source="Oj0tfPcwTxOMNZWfFIPI-66" target="Oj0tfPcwTxOMNZWfFIPI-7" edge="1">
          <mxGeometry relative="1" as="geometry">
            <Array as="points">
              <mxPoint x="1160" y="408" />
            </Array>
          </mxGeometry>
        </mxCell>
        <mxCell id="Oj0tfPcwTxOMNZWfFIPI-78" value="FINANCE DEPARTMENT" style="text;html=1;align=center;verticalAlign=middle;resizable=0;points=[];autosize=1;strokeColor=none;fillColor=none;" parent="1" vertex="1">
          <mxGeometry x="-800" y="483" width="160" height="30" as="geometry" />
        </mxCell>
        <mxCell id="Oj0tfPcwTxOMNZWfFIPI-79" value="HR DEPARTMENT" style="text;html=1;align=center;verticalAlign=middle;resizable=0;points=[];autosize=1;strokeColor=none;fillColor=none;" parent="1" vertex="1">
          <mxGeometry x="-442.38" y="563" width="130" height="30" as="geometry" />
        </mxCell>
        <mxCell id="Oj0tfPcwTxOMNZWfFIPI-80" value="LOGISTICS" style="text;html=1;align=center;verticalAlign=middle;resizable=0;points=[];autosize=1;strokeColor=none;fillColor=none;" parent="1" vertex="1">
          <mxGeometry x="-80" y="641" width="90" height="30" as="geometry" />
        </mxCell>
        <mxCell id="Oj0tfPcwTxOMNZWfFIPI-81" value="SALES DEPARTMENT" style="text;html=1;align=center;verticalAlign=middle;resizable=0;points=[];autosize=1;strokeColor=none;fillColor=none;" parent="1" vertex="1">
          <mxGeometry x="277.62" y="641" width="150" height="30" as="geometry" />
        </mxCell>
        <mxCell id="Oj0tfPcwTxOMNZWfFIPI-82" value="IT DEPARTMENT" style="text;html=1;align=center;verticalAlign=middle;resizable=0;points=[];autosize=1;strokeColor=none;fillColor=none;" parent="1" vertex="1">
          <mxGeometry x="637.62" y="563" width="120" height="30" as="geometry" />
        </mxCell>
        <mxCell id="Oj0tfPcwTxOMNZWfFIPI-83" value="CUSTOMER SUPPORT" style="text;html=1;align=center;verticalAlign=middle;resizable=0;points=[];autosize=1;strokeColor=none;fillColor=none;" parent="1" vertex="1">
          <mxGeometry x="997.62" y="483" width="150" height="30" as="geometry" />
        </mxCell>
        <mxCell id="Oj0tfPcwTxOMNZWfFIPI-84" value="" style="sketch=0;pointerEvents=1;shadow=0;dashed=0;html=1;strokeColor=none;fillColor=#505050;labelPosition=center;verticalLabelPosition=bottom;verticalAlign=top;outlineConnect=0;align=center;shape=mxgraph.office.devices.workstation_pc;" parent="1" vertex="1">
          <mxGeometry x="-760" y="620" width="53" height="59" as="geometry" />
        </mxCell>
        <mxCell id="Oj0tfPcwTxOMNZWfFIPI-86" value="" style="image;points=[];aspect=fixed;html=1;align=center;shadow=0;dashed=0;image=img/lib/allied_telesis/computer_and_terminals/Personal_Computer_with_Server.svg;" parent="1" vertex="1">
          <mxGeometry x="-580" y="698" width="62.400000000000006" height="62.400000000000006" as="geometry" />
        </mxCell>
        <mxCell id="Oj0tfPcwTxOMNZWfFIPI-87" value="" style="sketch=0;pointerEvents=1;shadow=0;dashed=0;html=1;strokeColor=none;fillColor=#505050;labelPosition=center;verticalLabelPosition=bottom;verticalAlign=top;outlineConnect=0;align=center;shape=mxgraph.office.devices.laptop;" parent="1" vertex="1">
          <mxGeometry x="-697" y="728" width="58" height="34" as="geometry" />
        </mxCell>
        <mxCell id="Oj0tfPcwTxOMNZWfFIPI-91" value="computer" style="text;html=1;align=center;verticalAlign=middle;resizable=0;points=[];autosize=1;strokeColor=none;fillColor=none;" parent="1" vertex="1">
          <mxGeometry x="-560" y="758" width="70" height="30" as="geometry" />
        </mxCell>
        <mxCell id="Oj0tfPcwTxOMNZWfFIPI-92" value="computer" style="text;html=1;align=center;verticalAlign=middle;resizable=0;points=[];autosize=1;strokeColor=none;fillColor=none;" parent="1" vertex="1">
          <mxGeometry x="-768.5" y="678" width="70" height="30" as="geometry" />
        </mxCell>
        <mxCell id="Oj0tfPcwTxOMNZWfFIPI-93" value="laptop" style="text;html=1;align=center;verticalAlign=middle;resizable=0;points=[];autosize=1;strokeColor=none;fillColor=none;" parent="1" vertex="1">
          <mxGeometry x="-697" y="762" width="60" height="30" as="geometry" />
        </mxCell>
        <mxCell id="Oj0tfPcwTxOMNZWfFIPI-94" value="" style="sketch=0;pointerEvents=1;shadow=0;dashed=0;html=1;strokeColor=none;fillColor=#005F4B;labelPosition=center;verticalLabelPosition=bottom;verticalAlign=top;align=center;outlineConnect=0;shape=mxgraph.veeam2.laptop;" parent="1" vertex="1">
          <mxGeometry x="-410" y="680" width="48" height="28.000000000000004" as="geometry" />
        </mxCell>
        <mxCell id="Oj0tfPcwTxOMNZWfFIPI-95" value="" style="image;points=[];aspect=fixed;html=1;align=center;shadow=0;dashed=0;image=img/lib/allied_telesis/computer_and_terminals/Personal_Computer_Wireless.svg;" parent="1" vertex="1">
          <mxGeometry x="-210" y="708" width="63" height="64.2" as="geometry" />
        </mxCell>
        <mxCell id="Oj0tfPcwTxOMNZWfFIPI-96" value="" style="image;aspect=fixed;html=1;points=[];align=center;fontSize=12;image=img/lib/azure2/other/Defender_Industrial_Printer.svg;" parent="1" vertex="1">
          <mxGeometry x="-350" y="780" width="68" height="68" as="geometry" />
        </mxCell>
        <mxCell id="Oj0tfPcwTxOMNZWfFIPI-97" value="laptop" style="text;html=1;align=center;verticalAlign=middle;resizable=0;points=[];autosize=1;strokeColor=none;fillColor=none;" parent="1" vertex="1">
          <mxGeometry x="-422" y="708" width="60" height="30" as="geometry" />
        </mxCell>
        <mxCell id="Oj0tfPcwTxOMNZWfFIPI-98" value="computer" style="text;html=1;align=center;verticalAlign=middle;resizable=0;points=[];autosize=1;strokeColor=none;fillColor=none;" parent="1" vertex="1">
          <mxGeometry x="-195" y="772.2" width="70" height="30" as="geometry" />
        </mxCell>
        <mxCell id="Oj0tfPcwTxOMNZWfFIPI-99" value="printer" style="text;html=1;align=center;verticalAlign=middle;resizable=0;points=[];autosize=1;strokeColor=none;fillColor=none;" parent="1" vertex="1">
          <mxGeometry x="-282" y="810" width="60" height="30" as="geometry" />
        </mxCell>
        <mxCell id="Oj0tfPcwTxOMNZWfFIPI-100" style="edgeStyle=orthogonalEdgeStyle;rounded=0;orthogonalLoop=1;jettySize=auto;html=1;exitX=0.5;exitY=1;exitDx=0;exitDy=0;exitPerimeter=0;entryX=0.506;entryY=-0.023;entryDx=0;entryDy=0;entryPerimeter=0;endArrow=none;startFill=0;" parent="1" source="Oj0tfPcwTxOMNZWfFIPI-68" target="Oj0tfPcwTxOMNZWfFIPI-96" edge="1">
          <mxGeometry relative="1" as="geometry" />
        </mxCell>
        <mxCell id="Oj0tfPcwTxOMNZWfFIPI-103" value="" style="image;points=[];aspect=fixed;html=1;align=center;shadow=0;dashed=0;image=img/lib/allied_telesis/computer_and_terminals/Personal_Computer_Wireless.svg;" parent="1" vertex="1">
          <mxGeometry x="130" y="860" width="63" height="64.2" as="geometry" />
        </mxCell>
        <mxCell id="Oj0tfPcwTxOMNZWfFIPI-104" value="" style="image;points=[];aspect=fixed;html=1;align=center;shadow=0;dashed=0;image=img/lib/allied_telesis/computer_and_terminals/Personal_Computer_Wireless.svg;" parent="1" vertex="1">
          <mxGeometry x="120" y="745.8000000000001" width="63" height="64.2" as="geometry" />
        </mxCell>
        <mxCell id="Oj0tfPcwTxOMNZWfFIPI-105" value="" style="image;points=[];aspect=fixed;html=1;align=center;shadow=0;dashed=0;image=img/lib/allied_telesis/computer_and_terminals/Personal_Computer_Wireless.svg;" parent="1" vertex="1">
          <mxGeometry x="-20" y="792" width="63" height="64.2" as="geometry" />
        </mxCell>
        <mxCell id="Oj0tfPcwTxOMNZWfFIPI-106" value="computer" style="text;html=1;align=center;verticalAlign=middle;resizable=0;points=[];autosize=1;strokeColor=none;fillColor=none;" parent="1" vertex="1">
          <mxGeometry x="168" y="920" width="70" height="30" as="geometry" />
        </mxCell>
        <mxCell id="Oj0tfPcwTxOMNZWfFIPI-107" value="computer" style="text;html=1;align=center;verticalAlign=middle;resizable=0;points=[];autosize=1;strokeColor=none;fillColor=none;" parent="1" vertex="1">
          <mxGeometry x="-10" y="860" width="70" height="30" as="geometry" />
        </mxCell>
        <mxCell id="Oj0tfPcwTxOMNZWfFIPI-108" value="computer" style="text;html=1;align=center;verticalAlign=middle;resizable=0;points=[];autosize=1;strokeColor=none;fillColor=none;" parent="1" vertex="1">
          <mxGeometry x="168" y="806" width="70" height="30" as="geometry" />
        </mxCell>
        <mxCell id="Oj0tfPcwTxOMNZWfFIPI-112" value="" style="verticalLabelPosition=bottom;html=1;verticalAlign=top;align=center;strokeColor=none;fillColor=#00BEF2;shape=mxgraph.azure.laptop;pointerEvents=1;" parent="1" vertex="1">
          <mxGeometry x="312" y="750" width="50" height="30" as="geometry" />
        </mxCell>
        <mxCell id="Oj0tfPcwTxOMNZWfFIPI-113" value="" style="fontColor=#0066CC;verticalAlign=top;verticalLabelPosition=bottom;labelPosition=center;align=center;html=1;outlineConnect=0;fillColor=#CCCCCC;strokeColor=#6881B3;gradientColor=none;gradientDirection=north;strokeWidth=2;shape=mxgraph.networks.pc;" parent="1" vertex="1">
          <mxGeometry x="500" y="772.2" width="60" height="42" as="geometry" />
        </mxCell>
        <mxCell id="Oj0tfPcwTxOMNZWfFIPI-121" style="edgeStyle=orthogonalEdgeStyle;rounded=0;orthogonalLoop=1;jettySize=auto;html=1;dashed=1;endArrow=none;startFill=0;" parent="1" source="Oj0tfPcwTxOMNZWfFIPI-114" target="Oj0tfPcwTxOMNZWfFIPI-116" edge="1">
          <mxGeometry relative="1" as="geometry" />
        </mxCell>
        <mxCell id="Oj0tfPcwTxOMNZWfFIPI-122" style="edgeStyle=orthogonalEdgeStyle;rounded=0;orthogonalLoop=1;jettySize=auto;html=1;dashed=1;endArrow=none;startFill=0;" parent="1" source="Oj0tfPcwTxOMNZWfFIPI-114" target="Oj0tfPcwTxOMNZWfFIPI-115" edge="1">
          <mxGeometry relative="1" as="geometry">
            <Array as="points">
              <mxPoint x="419" y="840" />
              <mxPoint x="510" y="840" />
            </Array>
          </mxGeometry>
        </mxCell>
        <mxCell id="Oj0tfPcwTxOMNZWfFIPI-114" value="" style="sketch=0;verticalLabelPosition=bottom;sketch=0;aspect=fixed;html=1;verticalAlign=top;strokeColor=none;fillColor=#000000;align=center;outlineConnect=0;pointerEvents=1;shape=mxgraph.citrix2.wifi_router;" parent="1" vertex="1">
          <mxGeometry x="390" y="772.2" width="57.68" height="57.8" as="geometry" />
        </mxCell>
        <mxCell id="Oj0tfPcwTxOMNZWfFIPI-115" value="" style="image;html=1;image=img/lib/clip_art/computers/Fujitsu_Tablet_128x128.png" parent="1" vertex="1">
          <mxGeometry x="470" y="860" width="80" height="80" as="geometry" />
        </mxCell>
        <mxCell id="Oj0tfPcwTxOMNZWfFIPI-116" value="" style="image;html=1;image=img/lib/clip_art/computers/Fujitsu_Tablet_128x128.png" parent="1" vertex="1">
          <mxGeometry x="345" y="874" width="80" height="80" as="geometry" />
        </mxCell>
        <mxCell id="Oj0tfPcwTxOMNZWfFIPI-118" style="edgeStyle=orthogonalEdgeStyle;rounded=0;orthogonalLoop=1;jettySize=auto;html=1;exitX=0.25;exitY=1;exitDx=0;exitDy=0;exitPerimeter=0;entryX=0.5;entryY=0;entryDx=0;entryDy=0;entryPerimeter=0;endArrow=none;startFill=0;" parent="1" source="Oj0tfPcwTxOMNZWfFIPI-62" target="Oj0tfPcwTxOMNZWfFIPI-112" edge="1">
          <mxGeometry relative="1" as="geometry">
            <Array as="points">
              <mxPoint x="433" y="740" />
              <mxPoint x="391" y="740" />
              <mxPoint x="391" y="730" />
              <mxPoint x="337" y="730" />
            </Array>
          </mxGeometry>
        </mxCell>
        <mxCell id="Oj0tfPcwTxOMNZWfFIPI-123" value="" style="image;html=1;image=img/lib/clip_art/computers/Server_Rack_128x128.png" parent="1" vertex="1">
          <mxGeometry x="850" y="712" width="80" height="80" as="geometry" />
        </mxCell>
        <mxCell id="Oj0tfPcwTxOMNZWfFIPI-124" value="laptop" style="text;html=1;align=center;verticalAlign=middle;resizable=0;points=[];autosize=1;strokeColor=none;fillColor=none;" parent="1" vertex="1">
          <mxGeometry x="322.62" y="778.2" width="60" height="30" as="geometry" />
        </mxCell>
        <mxCell id="Oj0tfPcwTxOMNZWfFIPI-125" value="computer" style="text;html=1;align=center;verticalAlign=middle;resizable=0;points=[];autosize=1;strokeColor=none;fillColor=none;" parent="1" vertex="1">
          <mxGeometry x="527.62" y="813.2" width="70" height="30" as="geometry" />
        </mxCell>
        <mxCell id="Oj0tfPcwTxOMNZWfFIPI-126" value="tablet" style="text;html=1;align=center;verticalAlign=middle;resizable=0;points=[];autosize=1;strokeColor=none;fillColor=none;" parent="1" vertex="1">
          <mxGeometry x="393.84000000000003" y="930" width="50" height="30" as="geometry" />
        </mxCell>
        <mxCell id="Oj0tfPcwTxOMNZWfFIPI-127" value="tablet" style="text;html=1;align=center;verticalAlign=middle;resizable=0;points=[];autosize=1;strokeColor=none;fillColor=none;" parent="1" vertex="1">
          <mxGeometry x="510" y="920" width="50" height="30" as="geometry" />
        </mxCell>
        <mxCell id="Oj0tfPcwTxOMNZWfFIPI-128" value="wifi ap" style="text;html=1;align=center;verticalAlign=middle;resizable=0;points=[];autosize=1;strokeColor=none;fillColor=none;" parent="1" vertex="1">
          <mxGeometry x="436.62" y="813.2" width="60" height="30" as="geometry" />
        </mxCell>
        <mxCell id="Oj0tfPcwTxOMNZWfFIPI-129" value="" style="image;aspect=fixed;perimeter=ellipsePerimeter;html=1;align=center;shadow=0;dashed=0;spacingTop=3;image=img/lib/active_directory/generic_server.svg;" parent="1" vertex="1">
          <mxGeometry x="670.74" y="652" width="53.76" height="96" as="geometry" />
        </mxCell>
        <mxCell id="Oj0tfPcwTxOMNZWfFIPI-130" value="" style="sketch=0;pointerEvents=1;shadow=0;dashed=0;html=1;strokeColor=none;fillColor=#505050;labelPosition=center;verticalLabelPosition=bottom;verticalAlign=top;outlineConnect=0;align=center;shape=mxgraph.office.devices.workstation_pc;" parent="1" vertex="1">
          <mxGeometry x="788.5" y="762" width="53" height="59" as="geometry" />
        </mxCell>
        <mxCell id="Oj0tfPcwTxOMNZWfFIPI-132" value="" style="sketch=0;pointerEvents=1;shadow=0;dashed=0;html=1;strokeColor=none;fillColor=#505050;labelPosition=center;verticalLabelPosition=bottom;verticalAlign=top;outlineConnect=0;align=center;shape=mxgraph.office.devices.laptop;" parent="1" vertex="1">
          <mxGeometry x="671" y="806" width="58" height="34" as="geometry" />
        </mxCell>
        <mxCell id="Oj0tfPcwTxOMNZWfFIPI-133" value="computer" style="text;html=1;align=center;verticalAlign=middle;resizable=0;points=[];autosize=1;strokeColor=none;fillColor=none;" parent="1" vertex="1">
          <mxGeometry x="810" y="826" width="70" height="30" as="geometry" />
        </mxCell>
        <mxCell id="Oj0tfPcwTxOMNZWfFIPI-134" value="laptops" style="text;html=1;align=center;verticalAlign=middle;resizable=0;points=[];autosize=1;strokeColor=none;fillColor=none;" parent="1" vertex="1">
          <mxGeometry x="690" y="838" width="60" height="30" as="geometry" />
        </mxCell>
        <mxCell id="Oj0tfPcwTxOMNZWfFIPI-135" value="server1" style="text;html=1;align=center;verticalAlign=middle;resizable=0;points=[];autosize=1;strokeColor=none;fillColor=none;" parent="1" vertex="1">
          <mxGeometry x="880" y="786.1" width="60" height="30" as="geometry" />
        </mxCell>
        <mxCell id="Oj0tfPcwTxOMNZWfFIPI-136" value="server2" style="text;html=1;align=center;verticalAlign=middle;resizable=0;points=[];autosize=1;strokeColor=none;fillColor=none;" parent="1" vertex="1">
          <mxGeometry x="697.62" y="728" width="60" height="30" as="geometry" />
        </mxCell>
        <mxCell id="Oj0tfPcwTxOMNZWfFIPI-142" value="" style="sketch=0;pointerEvents=1;shadow=0;dashed=0;html=1;strokeColor=none;fillColor=#505050;labelPosition=center;verticalLabelPosition=bottom;verticalAlign=top;outlineConnect=0;align=center;shape=mxgraph.office.devices.workstation_pc;" parent="1" vertex="1">
          <mxGeometry x="1030" y="612" width="53" height="59" as="geometry" />
        </mxCell>
        <mxCell id="Oj0tfPcwTxOMNZWfFIPI-143" value="" style="sketch=0;pointerEvents=1;shadow=0;dashed=0;html=1;strokeColor=none;fillColor=#505050;labelPosition=center;verticalLabelPosition=bottom;verticalAlign=top;outlineConnect=0;align=center;shape=mxgraph.office.devices.workstation_pc;" parent="1" vertex="1">
          <mxGeometry x="1193.5" y="686.8" width="53" height="59" as="geometry" />
        </mxCell>
        <mxCell id="Oj0tfPcwTxOMNZWfFIPI-146" value="computer" style="text;html=1;align=center;verticalAlign=middle;resizable=0;points=[];autosize=1;strokeColor=none;fillColor=none;" parent="1" vertex="1">
          <mxGeometry x="1065" y="668" width="70" height="30" as="geometry" />
        </mxCell>
        <mxCell id="Oj0tfPcwTxOMNZWfFIPI-147" value="computer" style="text;html=1;align=center;verticalAlign=middle;resizable=0;points=[];autosize=1;strokeColor=none;fillColor=none;" parent="1" vertex="1">
          <mxGeometry x="1230" y="745.8" width="70" height="30" as="geometry" />
        </mxCell>
        <mxCell id="Oj0tfPcwTxOMNZWfFIPI-149" value="" style="rounded=0;whiteSpace=wrap;html=1;fillColor=#e1d5e7;strokeColor=#9673a6;opacity=80;" parent="1" vertex="1">
          <mxGeometry x="997.62" y="1265" width="320" height="313" as="geometry" />
        </mxCell>
        <mxCell id="Oj0tfPcwTxOMNZWfFIPI-150" style="edgeStyle=orthogonalEdgeStyle;rounded=0;orthogonalLoop=1;jettySize=auto;html=1;exitX=0.5;exitY=1;exitDx=0;exitDy=0;exitPerimeter=0;" parent="1" source="Oj0tfPcwTxOMNZWfFIPI-152" target="Oj0tfPcwTxOMNZWfFIPI-155" edge="1">
          <mxGeometry relative="1" as="geometry" />
        </mxCell>
        <mxCell id="Oj0tfPcwTxOMNZWfFIPI-151" style="edgeStyle=orthogonalEdgeStyle;rounded=0;orthogonalLoop=1;jettySize=auto;html=1;exitX=0.75;exitY=1;exitDx=0;exitDy=0;exitPerimeter=0;" parent="1" source="Oj0tfPcwTxOMNZWfFIPI-152" target="Oj0tfPcwTxOMNZWfFIPI-156" edge="1">
          <mxGeometry relative="1" as="geometry" />
        </mxCell>
        <mxCell id="Oj0tfPcwTxOMNZWfFIPI-152" value="" style="sketch=0;points=[[0.015,0.015,0],[0.985,0.015,0],[0.985,0.985,0],[0.015,0.985,0],[0.25,0,0],[0.5,0,0],[0.75,0,0],[1,0.25,0],[1,0.5,0],[1,0.75,0],[0.75,1,0],[0.5,1,0],[0.25,1,0],[0,0.75,0],[0,0.5,0],[0,0.25,0]];verticalLabelPosition=bottom;html=1;verticalAlign=top;aspect=fixed;align=center;pointerEvents=1;shape=mxgraph.cisco19.rect;prIcon=l2_switch;fillColor=#FAFAFA;strokeColor=#005073;" parent="1" vertex="1">
          <mxGeometry x="1135" y="1305" width="50" height="50" as="geometry" />
        </mxCell>
        <mxCell id="Oj0tfPcwTxOMNZWfFIPI-153" value="L2 switch" style="text;html=1;align=center;verticalAlign=middle;resizable=0;points=[];autosize=1;strokeColor=none;fillColor=none;" parent="1" vertex="1">
          <mxGeometry x="1185" y="1325" width="70" height="30" as="geometry" />
        </mxCell>
        <mxCell id="Oj0tfPcwTxOMNZWfFIPI-154" value="CUSTOMER SUPPORT" style="text;html=1;align=center;verticalAlign=middle;resizable=0;points=[];autosize=1;strokeColor=none;fillColor=none;" parent="1" vertex="1">
          <mxGeometry x="997.62" y="1265" width="150" height="30" as="geometry" />
        </mxCell>
        <mxCell id="Oj0tfPcwTxOMNZWfFIPI-155" value="" style="sketch=0;pointerEvents=1;shadow=0;dashed=0;html=1;strokeColor=none;fillColor=#505050;labelPosition=center;verticalLabelPosition=bottom;verticalAlign=top;outlineConnect=0;align=center;shape=mxgraph.office.devices.workstation_pc;" parent="1" vertex="1">
          <mxGeometry x="1042.62" y="1475" width="53" height="59" as="geometry" />
        </mxCell>
        <mxCell id="Oj0tfPcwTxOMNZWfFIPI-156" value="" style="sketch=0;pointerEvents=1;shadow=0;dashed=0;html=1;strokeColor=none;fillColor=#505050;labelPosition=center;verticalLabelPosition=bottom;verticalAlign=top;outlineConnect=0;align=center;shape=mxgraph.office.devices.workstation_pc;" parent="1" vertex="1">
          <mxGeometry x="1200.2400000000002" y="1395" width="53" height="59" as="geometry" />
        </mxCell>
        <mxCell id="Oj0tfPcwTxOMNZWfFIPI-157" value="computer" style="text;html=1;align=center;verticalAlign=middle;resizable=0;points=[];autosize=1;strokeColor=none;fillColor=none;" parent="1" vertex="1">
          <mxGeometry x="1077.62" y="1531" width="70" height="30" as="geometry" />
        </mxCell>
        <mxCell id="Oj0tfPcwTxOMNZWfFIPI-158" value="computer" style="text;html=1;align=center;verticalAlign=middle;resizable=0;points=[];autosize=1;strokeColor=none;fillColor=none;" parent="1" vertex="1">
          <mxGeometry x="1236.7400000000002" y="1454" width="70" height="30" as="geometry" />
        </mxCell>
        <mxCell id="Oj0tfPcwTxOMNZWfFIPI-159" value="" style="rounded=0;whiteSpace=wrap;html=1;fillColor=#fff2cc;strokeColor=#d6b656;opacity=80;" parent="1" vertex="1">
          <mxGeometry x="607.12" y="1265" width="320" height="313" as="geometry" />
        </mxCell>
        <mxCell id="Oj0tfPcwTxOMNZWfFIPI-160" style="edgeStyle=orthogonalEdgeStyle;rounded=0;orthogonalLoop=1;jettySize=auto;html=1;exitX=0.5;exitY=1;exitDx=0;exitDy=0;exitPerimeter=0;endArrow=none;startFill=0;" parent="1" source="Oj0tfPcwTxOMNZWfFIPI-162" target="Oj0tfPcwTxOMNZWfFIPI-169" edge="1">
          <mxGeometry relative="1" as="geometry" />
        </mxCell>
        <mxCell id="Oj0tfPcwTxOMNZWfFIPI-161" style="edgeStyle=orthogonalEdgeStyle;rounded=0;orthogonalLoop=1;jettySize=auto;html=1;exitX=0.75;exitY=1;exitDx=0;exitDy=0;exitPerimeter=0;endArrow=none;startFill=0;" parent="1" source="Oj0tfPcwTxOMNZWfFIPI-162" edge="1">
          <mxGeometry relative="1" as="geometry">
            <mxPoint x="859.48" y="1396.1999999999998" as="targetPoint" />
          </mxGeometry>
        </mxCell>
        <mxCell id="Oj0tfPcwTxOMNZWfFIPI-162" value="" style="sketch=0;points=[[0.015,0.015,0],[0.985,0.015,0],[0.985,0.985,0],[0.015,0.985,0],[0.25,0,0],[0.5,0,0],[0.75,0,0],[1,0.25,0],[1,0.5,0],[1,0.75,0],[0.75,1,0],[0.5,1,0],[0.25,1,0],[0,0.75,0],[0,0.5,0],[0,0.25,0]];verticalLabelPosition=bottom;html=1;verticalAlign=top;aspect=fixed;align=center;pointerEvents=1;shape=mxgraph.cisco19.rect;prIcon=l2_switch;fillColor=#FAFAFA;strokeColor=#005073;" parent="1" vertex="1">
          <mxGeometry x="749.5" y="1302" width="50" height="50" as="geometry" />
        </mxCell>
        <mxCell id="Oj0tfPcwTxOMNZWfFIPI-163" value="L2 switch" style="text;html=1;align=center;verticalAlign=middle;resizable=0;points=[];autosize=1;strokeColor=none;fillColor=none;" parent="1" vertex="1">
          <mxGeometry x="799.5" y="1322" width="70" height="30" as="geometry" />
        </mxCell>
        <mxCell id="Oj0tfPcwTxOMNZWfFIPI-164" value="SALES DEPARTMENT" style="text;html=1;align=center;verticalAlign=middle;resizable=0;points=[];autosize=1;strokeColor=none;fillColor=none;" parent="1" vertex="1">
          <mxGeometry x="607.12" y="1265" width="150" height="30" as="geometry" />
        </mxCell>
        <mxCell id="Oj0tfPcwTxOMNZWfFIPI-167" style="edgeStyle=orthogonalEdgeStyle;rounded=0;orthogonalLoop=1;jettySize=auto;html=1;dashed=1;endArrow=none;startFill=0;" parent="1" source="Oj0tfPcwTxOMNZWfFIPI-169" target="Oj0tfPcwTxOMNZWfFIPI-171" edge="1">
          <mxGeometry relative="1" as="geometry">
            <Array as="points">
              <mxPoint x="748" y="1474" />
              <mxPoint x="689" y="1474" />
            </Array>
          </mxGeometry>
        </mxCell>
        <mxCell id="Oj0tfPcwTxOMNZWfFIPI-168" style="edgeStyle=orthogonalEdgeStyle;rounded=0;orthogonalLoop=1;jettySize=auto;html=1;dashed=1;endArrow=none;startFill=0;" parent="1" source="Oj0tfPcwTxOMNZWfFIPI-169" target="Oj0tfPcwTxOMNZWfFIPI-170" edge="1">
          <mxGeometry relative="1" as="geometry">
            <Array as="points">
              <mxPoint x="748.5" y="1464" />
              <mxPoint x="839.5" y="1464" />
            </Array>
          </mxGeometry>
        </mxCell>
        <mxCell id="Oj0tfPcwTxOMNZWfFIPI-169" value="" style="sketch=0;verticalLabelPosition=bottom;sketch=0;aspect=fixed;html=1;verticalAlign=top;strokeColor=none;fillColor=#000000;align=center;outlineConnect=0;pointerEvents=1;shape=mxgraph.citrix2.wifi_router;" parent="1" vertex="1">
          <mxGeometry x="719.5" y="1396.2" width="57.68" height="57.8" as="geometry" />
        </mxCell>
        <mxCell id="Oj0tfPcwTxOMNZWfFIPI-170" value="" style="image;html=1;image=img/lib/clip_art/computers/Fujitsu_Tablet_128x128.png" parent="1" vertex="1">
          <mxGeometry x="811.5" y="1472.1" width="80" height="80" as="geometry" />
        </mxCell>
        <mxCell id="Oj0tfPcwTxOMNZWfFIPI-171" value="" style="image;html=1;image=img/lib/clip_art/computers/Fujitsu_Tablet_128x128.png" parent="1" vertex="1">
          <mxGeometry x="649" y="1481" width="80" height="80" as="geometry" />
        </mxCell>
        <mxCell id="Oj0tfPcwTxOMNZWfFIPI-172" style="edgeStyle=orthogonalEdgeStyle;rounded=0;orthogonalLoop=1;jettySize=auto;html=1;exitX=0.25;exitY=1;exitDx=0;exitDy=0;exitPerimeter=0;entryX=0.5;entryY=0;entryDx=0;entryDy=0;entryPerimeter=0;endArrow=none;startFill=0;" parent="1" source="Oj0tfPcwTxOMNZWfFIPI-162" edge="1">
          <mxGeometry relative="1" as="geometry">
            <Array as="points">
              <mxPoint x="762.5" y="1364" />
              <mxPoint x="720.5" y="1364" />
              <mxPoint x="720.5" y="1354" />
              <mxPoint x="666.5" y="1354" />
            </Array>
            <mxPoint x="666.5" y="1374" as="targetPoint" />
          </mxGeometry>
        </mxCell>
        <mxCell id="Oj0tfPcwTxOMNZWfFIPI-173" value="laptop" style="text;html=1;align=center;verticalAlign=middle;resizable=0;points=[];autosize=1;strokeColor=none;fillColor=none;" parent="1" vertex="1">
          <mxGeometry x="860" y="1430" width="60" height="30" as="geometry" />
        </mxCell>
        <mxCell id="Oj0tfPcwTxOMNZWfFIPI-174" value="computer" style="text;html=1;align=center;verticalAlign=middle;resizable=0;points=[];autosize=1;strokeColor=none;fillColor=none;" parent="1" vertex="1">
          <mxGeometry x="620" y="1418.9" width="70" height="30" as="geometry" />
        </mxCell>
        <mxCell id="Oj0tfPcwTxOMNZWfFIPI-175" value="tablet" style="text;html=1;align=center;verticalAlign=middle;resizable=0;points=[];autosize=1;strokeColor=none;fillColor=none;" parent="1" vertex="1">
          <mxGeometry x="690" y="1544" width="50" height="30" as="geometry" />
        </mxCell>
        <mxCell id="Oj0tfPcwTxOMNZWfFIPI-176" value="tablet" style="text;html=1;align=center;verticalAlign=middle;resizable=0;points=[];autosize=1;strokeColor=none;fillColor=none;" parent="1" vertex="1">
          <mxGeometry x="839.5" y="1544" width="50" height="30" as="geometry" />
        </mxCell>
        <mxCell id="Oj0tfPcwTxOMNZWfFIPI-177" value="wifi ap" style="text;html=1;align=center;verticalAlign=middle;resizable=0;points=[];autosize=1;strokeColor=none;fillColor=none;" parent="1" vertex="1">
          <mxGeometry x="766.12" y="1437.2" width="60" height="30" as="geometry" />
        </mxCell>
        <mxCell id="Oj0tfPcwTxOMNZWfFIPI-178" value="printer" style="text;html=1;align=center;verticalAlign=middle;resizable=0;points=[];autosize=1;strokeColor=none;fillColor=none;" parent="1" vertex="1">
          <mxGeometry x="355.24" y="1318" width="60" height="30" as="geometry" />
        </mxCell>
        <mxCell id="Oj0tfPcwTxOMNZWfFIPI-179" value="pc" style="text;html=1;align=center;verticalAlign=middle;resizable=0;points=[];autosize=1;strokeColor=none;fillColor=none;" parent="1" vertex="1">
          <mxGeometry x="205.24" y="1318" width="40" height="30" as="geometry" />
        </mxCell>
        <mxCell id="Oj0tfPcwTxOMNZWfFIPI-180" value="" style="rounded=0;whiteSpace=wrap;html=1;fillColor=#bac8d3;strokeColor=#23445d;opacity=80;" parent="1" vertex="1">
          <mxGeometry x="205.24" y="1261" width="320" height="313" as="geometry" />
        </mxCell>
        <mxCell id="Oj0tfPcwTxOMNZWfFIPI-181" style="edgeStyle=orthogonalEdgeStyle;rounded=0;orthogonalLoop=1;jettySize=auto;html=1;exitX=0.162;exitY=0.998;exitDx=0;exitDy=0;exitPerimeter=0;endArrow=none;startFill=0;" parent="1" source="Oj0tfPcwTxOMNZWfFIPI-184" target="Oj0tfPcwTxOMNZWfFIPI-189" edge="1">
          <mxGeometry relative="1" as="geometry">
            <Array as="points">
              <mxPoint x="343" y="1355" />
              <mxPoint x="273" y="1355" />
            </Array>
          </mxGeometry>
        </mxCell>
        <mxCell id="Oj0tfPcwTxOMNZWfFIPI-182" style="edgeStyle=orthogonalEdgeStyle;rounded=0;orthogonalLoop=1;jettySize=auto;html=1;exitX=0.609;exitY=0.996;exitDx=0;exitDy=0;exitPerimeter=0;endArrow=none;startFill=0;" parent="1" source="Oj0tfPcwTxOMNZWfFIPI-184" target="Oj0tfPcwTxOMNZWfFIPI-187" edge="1">
          <mxGeometry relative="1" as="geometry">
            <Array as="points">
              <mxPoint x="366" y="1339" />
              <mxPoint x="366" y="1339" />
              <mxPoint x="366" y="1465" />
              <mxPoint x="447" y="1465" />
            </Array>
          </mxGeometry>
        </mxCell>
        <mxCell id="Oj0tfPcwTxOMNZWfFIPI-183" style="edgeStyle=orthogonalEdgeStyle;rounded=0;orthogonalLoop=1;jettySize=auto;html=1;exitX=0.812;exitY=0.991;exitDx=0;exitDy=0;exitPerimeter=0;endArrow=none;startFill=0;" parent="1" source="Oj0tfPcwTxOMNZWfFIPI-184" target="Oj0tfPcwTxOMNZWfFIPI-188" edge="1">
          <mxGeometry relative="1" as="geometry">
            <Array as="points">
              <mxPoint x="376" y="1390" />
            </Array>
          </mxGeometry>
        </mxCell>
        <mxCell id="Oj0tfPcwTxOMNZWfFIPI-197" style="edgeStyle=orthogonalEdgeStyle;rounded=0;orthogonalLoop=1;jettySize=auto;html=1;endArrow=none;startFill=0;exitX=0.394;exitY=0.993;exitDx=0;exitDy=0;exitPerimeter=0;" parent="1" source="Oj0tfPcwTxOMNZWfFIPI-184" target="Oj0tfPcwTxOMNZWfFIPI-196" edge="1">
          <mxGeometry relative="1" as="geometry">
            <mxPoint x="350" y="1338" as="sourcePoint" />
            <Array as="points">
              <mxPoint x="355" y="1495" />
            </Array>
          </mxGeometry>
        </mxCell>
        <mxCell id="Oj0tfPcwTxOMNZWfFIPI-184" value="" style="sketch=0;points=[[0.015,0.015,0],[0.985,0.015,0],[0.985,0.985,0],[0.015,0.985,0],[0.25,0,0],[0.5,0,0],[0.75,0,0],[1,0.25,0],[1,0.5,0],[1,0.75,0],[0.75,1,0],[0.5,1,0],[0.25,1,0],[0,0.75,0],[0,0.5,0],[0,0.25,0]];verticalLabelPosition=bottom;html=1;verticalAlign=top;aspect=fixed;align=center;pointerEvents=1;shape=mxgraph.cisco19.rect;prIcon=l2_switch;fillColor=#FAFAFA;strokeColor=#005073;" parent="1" vertex="1">
          <mxGeometry x="335.24" y="1288" width="50" height="50" as="geometry" />
        </mxCell>
        <mxCell id="Oj0tfPcwTxOMNZWfFIPI-185" value="L2 switch" style="text;html=1;align=center;verticalAlign=middle;resizable=0;points=[];autosize=1;strokeColor=none;fillColor=none;" parent="1" vertex="1">
          <mxGeometry x="385.24" y="1308" width="70" height="30" as="geometry" />
        </mxCell>
        <mxCell id="Oj0tfPcwTxOMNZWfFIPI-186" value="LOGISTICS" style="text;html=1;align=center;verticalAlign=middle;resizable=0;points=[];autosize=1;strokeColor=none;fillColor=none;" parent="1" vertex="1">
          <mxGeometry x="205.24" y="1261" width="90" height="30" as="geometry" />
        </mxCell>
        <mxCell id="Oj0tfPcwTxOMNZWfFIPI-187" value="" style="image;points=[];aspect=fixed;html=1;align=center;shadow=0;dashed=0;image=img/lib/allied_telesis/computer_and_terminals/Personal_Computer_Wireless.svg;" parent="1" vertex="1">
          <mxGeometry x="415.24" y="1480" width="63" height="64.2" as="geometry" />
        </mxCell>
        <mxCell id="Oj0tfPcwTxOMNZWfFIPI-188" value="" style="image;points=[];aspect=fixed;html=1;align=center;shadow=0;dashed=0;image=img/lib/allied_telesis/computer_and_terminals/Personal_Computer_Wireless.svg;" parent="1" vertex="1">
          <mxGeometry x="405.24" y="1365.8000000000002" width="63" height="64.2" as="geometry" />
        </mxCell>
        <mxCell id="Oj0tfPcwTxOMNZWfFIPI-189" value="" style="image;points=[];aspect=fixed;html=1;align=center;shadow=0;dashed=0;image=img/lib/allied_telesis/computer_and_terminals/Personal_Computer_Wireless.svg;" parent="1" vertex="1">
          <mxGeometry x="241" y="1365.8" width="63" height="64.2" as="geometry" />
        </mxCell>
        <mxCell id="Oj0tfPcwTxOMNZWfFIPI-190" value="computer" style="text;html=1;align=center;verticalAlign=middle;resizable=0;points=[];autosize=1;strokeColor=none;fillColor=none;" parent="1" vertex="1">
          <mxGeometry x="453.24" y="1540" width="70" height="30" as="geometry" />
        </mxCell>
        <mxCell id="Oj0tfPcwTxOMNZWfFIPI-191" value="computer" style="text;html=1;align=center;verticalAlign=middle;resizable=0;points=[];autosize=1;strokeColor=none;fillColor=none;" parent="1" vertex="1">
          <mxGeometry x="234" y="1437.2" width="70" height="30" as="geometry" />
        </mxCell>
        <mxCell id="Oj0tfPcwTxOMNZWfFIPI-192" value="computer" style="text;html=1;align=center;verticalAlign=middle;resizable=0;points=[];autosize=1;strokeColor=none;fillColor=none;" parent="1" vertex="1">
          <mxGeometry x="453.24" y="1426" width="70" height="30" as="geometry" />
        </mxCell>
        <mxCell id="Oj0tfPcwTxOMNZWfFIPI-193" value="" style="verticalLabelPosition=bottom;html=1;verticalAlign=top;align=center;strokeColor=none;fillColor=#00BEF2;shape=mxgraph.azure.laptop;pointerEvents=1;" parent="1" vertex="1">
          <mxGeometry x="841.5" y="1400" width="50" height="30" as="geometry" />
        </mxCell>
        <mxCell id="Oj0tfPcwTxOMNZWfFIPI-195" value="" style="fontColor=#0066CC;verticalAlign=top;verticalLabelPosition=bottom;labelPosition=center;align=center;html=1;outlineConnect=0;fillColor=#CCCCCC;strokeColor=#6881B3;gradientColor=none;gradientDirection=north;strokeWidth=2;shape=mxgraph.networks.pc;" parent="1" vertex="1">
          <mxGeometry x="630" y="1376.9" width="60" height="42" as="geometry" />
        </mxCell>
        <mxCell id="Oj0tfPcwTxOMNZWfFIPI-196" value="" style="image;points=[];aspect=fixed;html=1;align=center;shadow=0;dashed=0;image=img/lib/allied_telesis/computer_and_terminals/Personal_Computer_Wireless.svg;" parent="1" vertex="1">
          <mxGeometry x="249" y="1479.8" width="63" height="64.2" as="geometry" />
        </mxCell>
        <mxCell id="Oj0tfPcwTxOMNZWfFIPI-198" value="computer" style="text;html=1;align=center;verticalAlign=middle;resizable=0;points=[];autosize=1;strokeColor=none;fillColor=none;" parent="1" vertex="1">
          <mxGeometry x="275" y="1544" width="70" height="30" as="geometry" />
        </mxCell>
        <mxCell id="Oj0tfPcwTxOMNZWfFIPI-200" value="" style="sketch=0;points=[[0.5,0,0],[1,0.5,0],[0.5,1,0],[0,0.5,0],[0.145,0.145,0],[0.8555,0.145,0],[0.855,0.8555,0],[0.145,0.855,0]];verticalLabelPosition=bottom;html=1;verticalAlign=top;aspect=fixed;align=center;pointerEvents=1;shape=mxgraph.cisco19.rect;prIcon=router;fillColor=#FAFAFA;strokeColor=#005073;" parent="1" vertex="1">
          <mxGeometry x="520" y="1090" width="48.24" height="48.24" as="geometry" />
        </mxCell>
        <mxCell id="Oj0tfPcwTxOMNZWfFIPI-206" style="edgeStyle=orthogonalEdgeStyle;rounded=0;orthogonalLoop=1;jettySize=auto;html=1;exitX=0.75;exitY=1;exitDx=0;exitDy=0;exitPerimeter=0;entryX=0.5;entryY=0;entryDx=0;entryDy=0;entryPerimeter=0;endArrow=none;startFill=0;strokeWidth=2;" parent="1" source="Oj0tfPcwTxOMNZWfFIPI-202" target="Oj0tfPcwTxOMNZWfFIPI-152" edge="1">
          <mxGeometry relative="1" as="geometry">
            <mxPoint x="930" y="1195" as="targetPoint" />
            <Array as="points">
              <mxPoint x="386" y="1195" />
              <mxPoint x="1160" y="1195" />
            </Array>
          </mxGeometry>
        </mxCell>
        <mxCell id="Oj0tfPcwTxOMNZWfFIPI-202" value="" style="sketch=0;points=[[0.015,0.015,0],[0.985,0.015,0],[0.985,0.985,0],[0.015,0.985,0],[0.25,0,0],[0.5,0,0],[0.75,0,0],[1,0.25,0],[1,0.5,0],[1,0.75,0],[0.75,1,0],[0.5,1,0],[0.25,1,0],[0,0.75,0],[0,0.5,0],[0,0.25,0]];verticalLabelPosition=bottom;html=1;verticalAlign=top;aspect=fixed;align=center;pointerEvents=1;shape=mxgraph.cisco19.rect;prIcon=l3_switch;fillColor=#FAFAFA;strokeColor=#005073;" parent="1" vertex="1">
          <mxGeometry x="348" y="1093.24" width="50" height="50" as="geometry" />
        </mxCell>
        <mxCell id="Oj0tfPcwTxOMNZWfFIPI-203" style="edgeStyle=orthogonalEdgeStyle;rounded=0;orthogonalLoop=1;jettySize=auto;html=1;entryX=1;entryY=0.5;entryDx=0;entryDy=0;entryPerimeter=0;strokeWidth=3;endArrow=none;startFill=0;" parent="1" source="Oj0tfPcwTxOMNZWfFIPI-200" target="Oj0tfPcwTxOMNZWfFIPI-202" edge="1">
          <mxGeometry relative="1" as="geometry">
            <Array as="points">
              <mxPoint x="398" y="1117" />
            </Array>
          </mxGeometry>
        </mxCell>
        <mxCell id="Oj0tfPcwTxOMNZWfFIPI-204" style="edgeStyle=orthogonalEdgeStyle;rounded=0;orthogonalLoop=1;jettySize=auto;html=1;exitX=0.25;exitY=1;exitDx=0;exitDy=0;exitPerimeter=0;endArrow=none;startFill=0;entryX=0.5;entryY=0;entryDx=0;entryDy=0;entryPerimeter=0;strokeWidth=2;" parent="1" source="Oj0tfPcwTxOMNZWfFIPI-202" target="Oj0tfPcwTxOMNZWfFIPI-184" edge="1">
          <mxGeometry relative="1" as="geometry">
            <mxPoint x="361" y="1285" as="targetPoint" />
          </mxGeometry>
        </mxCell>
        <mxCell id="Oj0tfPcwTxOMNZWfFIPI-205" style="edgeStyle=orthogonalEdgeStyle;rounded=0;orthogonalLoop=1;jettySize=auto;html=1;exitX=0.5;exitY=1;exitDx=0;exitDy=0;exitPerimeter=0;entryX=0.5;entryY=0;entryDx=0;entryDy=0;entryPerimeter=0;endArrow=none;startFill=0;strokeWidth=2;" parent="1" source="Oj0tfPcwTxOMNZWfFIPI-202" target="Oj0tfPcwTxOMNZWfFIPI-162" edge="1">
          <mxGeometry relative="1" as="geometry" />
        </mxCell>
        <mxCell id="Oj0tfPcwTxOMNZWfFIPI-207" style="edgeStyle=orthogonalEdgeStyle;rounded=0;orthogonalLoop=1;jettySize=auto;html=1;entryX=1;entryY=0.5;entryDx=0;entryDy=0;entryPerimeter=0;strokeWidth=3;strokeColor=#FF3333;endArrow=none;startFill=0;" parent="1" source="Oj0tfPcwTxOMNZWfFIPI-11" target="Oj0tfPcwTxOMNZWfFIPI-200" edge="1">
          <mxGeometry relative="1" as="geometry">
            <Array as="points">
              <mxPoint x="1360" y="335" />
              <mxPoint x="1360" y="1114" />
            </Array>
          </mxGeometry>
        </mxCell>
        <mxCell id="Oj0tfPcwTxOMNZWfFIPI-209" value="L3 switch" style="text;html=1;align=center;verticalAlign=middle;resizable=0;points=[];autosize=1;strokeColor=none;fillColor=none;" parent="1" vertex="1">
          <mxGeometry x="385.24" y="1143.24" width="70" height="30" as="geometry" />
        </mxCell>
        <mxCell id="Oj0tfPcwTxOMNZWfFIPI-210" value="Router (branch 1)&amp;nbsp;" style="text;html=1;align=center;verticalAlign=middle;resizable=0;points=[];autosize=1;strokeColor=none;fillColor=none;" parent="1" vertex="1">
          <mxGeometry x="538.24" y="1138.24" width="120" height="30" as="geometry" />
        </mxCell>
        <mxCell id="Oj0tfPcwTxOMNZWfFIPI-211" value="" style="rounded=0;whiteSpace=wrap;html=1;fillColor=#e1d5e7;strokeColor=#9673a6;opacity=80;" parent="1" vertex="1">
          <mxGeometry x="-7.6200000000000045" y="1870" width="320" height="313" as="geometry" />
        </mxCell>
        <mxCell id="Oj0tfPcwTxOMNZWfFIPI-212" style="edgeStyle=orthogonalEdgeStyle;rounded=0;orthogonalLoop=1;jettySize=auto;html=1;exitX=0.5;exitY=1;exitDx=0;exitDy=0;exitPerimeter=0;endArrow=none;startFill=0;" parent="1" source="Oj0tfPcwTxOMNZWfFIPI-214" target="Oj0tfPcwTxOMNZWfFIPI-217" edge="1">
          <mxGeometry relative="1" as="geometry" />
        </mxCell>
        <mxCell id="Oj0tfPcwTxOMNZWfFIPI-213" style="edgeStyle=orthogonalEdgeStyle;rounded=0;orthogonalLoop=1;jettySize=auto;html=1;exitX=0.75;exitY=1;exitDx=0;exitDy=0;exitPerimeter=0;endArrow=none;startFill=0;" parent="1" source="Oj0tfPcwTxOMNZWfFIPI-214" target="Oj0tfPcwTxOMNZWfFIPI-218" edge="1">
          <mxGeometry relative="1" as="geometry" />
        </mxCell>
        <mxCell id="Oj0tfPcwTxOMNZWfFIPI-214" value="" style="sketch=0;points=[[0.015,0.015,0],[0.985,0.015,0],[0.985,0.985,0],[0.015,0.985,0],[0.25,0,0],[0.5,0,0],[0.75,0,0],[1,0.25,0],[1,0.5,0],[1,0.75,0],[0.75,1,0],[0.5,1,0],[0.25,1,0],[0,0.75,0],[0,0.5,0],[0,0.25,0]];verticalLabelPosition=bottom;html=1;verticalAlign=top;aspect=fixed;align=center;pointerEvents=1;shape=mxgraph.cisco19.rect;prIcon=l2_switch;fillColor=#FAFAFA;strokeColor=#005073;" parent="1" vertex="1">
          <mxGeometry x="129.76" y="1910" width="50" height="50" as="geometry" />
        </mxCell>
        <mxCell id="Oj0tfPcwTxOMNZWfFIPI-215" value="L2 switch" style="text;html=1;align=center;verticalAlign=middle;resizable=0;points=[];autosize=1;strokeColor=none;fillColor=none;" parent="1" vertex="1">
          <mxGeometry x="179.76" y="1930" width="70" height="30" as="geometry" />
        </mxCell>
        <mxCell id="Oj0tfPcwTxOMNZWfFIPI-216" value="CUSTOMER SUPPORT" style="text;html=1;align=center;verticalAlign=middle;resizable=0;points=[];autosize=1;strokeColor=none;fillColor=none;" parent="1" vertex="1">
          <mxGeometry x="-7.6200000000000045" y="1870" width="150" height="30" as="geometry" />
        </mxCell>
        <mxCell id="Oj0tfPcwTxOMNZWfFIPI-217" value="" style="sketch=0;pointerEvents=1;shadow=0;dashed=0;html=1;strokeColor=none;fillColor=#505050;labelPosition=center;verticalLabelPosition=bottom;verticalAlign=top;outlineConnect=0;align=center;shape=mxgraph.office.devices.workstation_pc;" parent="1" vertex="1">
          <mxGeometry x="37.37999999999988" y="2080" width="53" height="59" as="geometry" />
        </mxCell>
        <mxCell id="Oj0tfPcwTxOMNZWfFIPI-218" value="" style="sketch=0;pointerEvents=1;shadow=0;dashed=0;html=1;strokeColor=none;fillColor=#505050;labelPosition=center;verticalLabelPosition=bottom;verticalAlign=top;outlineConnect=0;align=center;shape=mxgraph.office.devices.workstation_pc;" parent="1" vertex="1">
          <mxGeometry x="195.00000000000023" y="2000" width="53" height="59" as="geometry" />
        </mxCell>
        <mxCell id="Oj0tfPcwTxOMNZWfFIPI-219" value="computer" style="text;html=1;align=center;verticalAlign=middle;resizable=0;points=[];autosize=1;strokeColor=none;fillColor=none;" parent="1" vertex="1">
          <mxGeometry x="72.37999999999988" y="2136" width="70" height="30" as="geometry" />
        </mxCell>
        <mxCell id="Oj0tfPcwTxOMNZWfFIPI-220" value="computer" style="text;html=1;align=center;verticalAlign=middle;resizable=0;points=[];autosize=1;strokeColor=none;fillColor=none;" parent="1" vertex="1">
          <mxGeometry x="231.50000000000023" y="2059" width="70" height="30" as="geometry" />
        </mxCell>
        <mxCell id="Oj0tfPcwTxOMNZWfFIPI-221" value="" style="rounded=0;whiteSpace=wrap;html=1;fillColor=#fff2cc;strokeColor=#d6b656;opacity=80;" parent="1" vertex="1">
          <mxGeometry x="-398.12" y="1870" width="320" height="313" as="geometry" />
        </mxCell>
        <mxCell id="Oj0tfPcwTxOMNZWfFIPI-222" style="edgeStyle=orthogonalEdgeStyle;rounded=0;orthogonalLoop=1;jettySize=auto;html=1;exitX=0.5;exitY=1;exitDx=0;exitDy=0;exitPerimeter=0;endArrow=none;startFill=0;" parent="1" source="Oj0tfPcwTxOMNZWfFIPI-224" target="Oj0tfPcwTxOMNZWfFIPI-229" edge="1">
          <mxGeometry relative="1" as="geometry" />
        </mxCell>
        <mxCell id="Oj0tfPcwTxOMNZWfFIPI-223" style="edgeStyle=orthogonalEdgeStyle;rounded=0;orthogonalLoop=1;jettySize=auto;html=1;exitX=0.75;exitY=1;exitDx=0;exitDy=0;exitPerimeter=0;endArrow=none;startFill=0;" parent="1" source="Oj0tfPcwTxOMNZWfFIPI-224" edge="1">
          <mxGeometry relative="1" as="geometry">
            <mxPoint x="-145.76" y="2001.1999999999998" as="targetPoint" />
          </mxGeometry>
        </mxCell>
        <mxCell id="Oj0tfPcwTxOMNZWfFIPI-224" value="" style="sketch=0;points=[[0.015,0.015,0],[0.985,0.015,0],[0.985,0.985,0],[0.015,0.985,0],[0.25,0,0],[0.5,0,0],[0.75,0,0],[1,0.25,0],[1,0.5,0],[1,0.75,0],[0.75,1,0],[0.5,1,0],[0.25,1,0],[0,0.75,0],[0,0.5,0],[0,0.25,0]];verticalLabelPosition=bottom;html=1;verticalAlign=top;aspect=fixed;align=center;pointerEvents=1;shape=mxgraph.cisco19.rect;prIcon=l2_switch;fillColor=#FAFAFA;strokeColor=#005073;" parent="1" vertex="1">
          <mxGeometry x="-255.74" y="1907" width="50" height="50" as="geometry" />
        </mxCell>
        <mxCell id="Oj0tfPcwTxOMNZWfFIPI-225" value="L2 switch" style="text;html=1;align=center;verticalAlign=middle;resizable=0;points=[];autosize=1;strokeColor=none;fillColor=none;" parent="1" vertex="1">
          <mxGeometry x="-205.74" y="1927" width="70" height="30" as="geometry" />
        </mxCell>
        <mxCell id="Oj0tfPcwTxOMNZWfFIPI-226" value="SALES DEPARTMENT" style="text;html=1;align=center;verticalAlign=middle;resizable=0;points=[];autosize=1;strokeColor=none;fillColor=none;" parent="1" vertex="1">
          <mxGeometry x="-398.12" y="1870" width="150" height="30" as="geometry" />
        </mxCell>
        <mxCell id="Oj0tfPcwTxOMNZWfFIPI-227" style="edgeStyle=orthogonalEdgeStyle;rounded=0;orthogonalLoop=1;jettySize=auto;html=1;dashed=1;endArrow=none;startFill=0;" parent="1" source="Oj0tfPcwTxOMNZWfFIPI-229" target="Oj0tfPcwTxOMNZWfFIPI-231" edge="1">
          <mxGeometry relative="1" as="geometry">
            <Array as="points">
              <mxPoint x="-257.24" y="2079" />
              <mxPoint x="-316.24" y="2079" />
            </Array>
          </mxGeometry>
        </mxCell>
        <mxCell id="Oj0tfPcwTxOMNZWfFIPI-228" style="edgeStyle=orthogonalEdgeStyle;rounded=0;orthogonalLoop=1;jettySize=auto;html=1;dashed=1;endArrow=none;startFill=0;" parent="1" source="Oj0tfPcwTxOMNZWfFIPI-229" target="Oj0tfPcwTxOMNZWfFIPI-230" edge="1">
          <mxGeometry relative="1" as="geometry">
            <Array as="points">
              <mxPoint x="-256.74" y="2069" />
              <mxPoint x="-165.74" y="2069" />
            </Array>
          </mxGeometry>
        </mxCell>
        <mxCell id="Oj0tfPcwTxOMNZWfFIPI-229" value="" style="sketch=0;verticalLabelPosition=bottom;sketch=0;aspect=fixed;html=1;verticalAlign=top;strokeColor=none;fillColor=#000000;align=center;outlineConnect=0;pointerEvents=1;shape=mxgraph.citrix2.wifi_router;" parent="1" vertex="1">
          <mxGeometry x="-285.74" y="2001.1999999999998" width="57.68" height="57.8" as="geometry" />
        </mxCell>
        <mxCell id="Oj0tfPcwTxOMNZWfFIPI-230" value="" style="image;html=1;image=img/lib/clip_art/computers/Fujitsu_Tablet_128x128.png" parent="1" vertex="1">
          <mxGeometry x="-193.74" y="2077.1" width="80" height="80" as="geometry" />
        </mxCell>
        <mxCell id="Oj0tfPcwTxOMNZWfFIPI-231" value="" style="image;html=1;image=img/lib/clip_art/computers/Fujitsu_Tablet_128x128.png" parent="1" vertex="1">
          <mxGeometry x="-356.24" y="2086" width="80" height="80" as="geometry" />
        </mxCell>
        <mxCell id="Oj0tfPcwTxOMNZWfFIPI-232" style="edgeStyle=orthogonalEdgeStyle;rounded=0;orthogonalLoop=1;jettySize=auto;html=1;exitX=0.25;exitY=1;exitDx=0;exitDy=0;exitPerimeter=0;entryX=0.5;entryY=0;entryDx=0;entryDy=0;entryPerimeter=0;endArrow=none;startFill=0;" parent="1" source="Oj0tfPcwTxOMNZWfFIPI-224" edge="1">
          <mxGeometry relative="1" as="geometry">
            <Array as="points">
              <mxPoint x="-242.74" y="1969" />
              <mxPoint x="-284.74" y="1969" />
              <mxPoint x="-284.74" y="1959" />
              <mxPoint x="-338.74" y="1959" />
            </Array>
            <mxPoint x="-338.74" y="1979" as="targetPoint" />
          </mxGeometry>
        </mxCell>
        <mxCell id="Oj0tfPcwTxOMNZWfFIPI-233" value="laptop" style="text;html=1;align=center;verticalAlign=middle;resizable=0;points=[];autosize=1;strokeColor=none;fillColor=none;" parent="1" vertex="1">
          <mxGeometry x="-145.24" y="2035" width="60" height="30" as="geometry" />
        </mxCell>
        <mxCell id="Oj0tfPcwTxOMNZWfFIPI-234" value="computer" style="text;html=1;align=center;verticalAlign=middle;resizable=0;points=[];autosize=1;strokeColor=none;fillColor=none;" parent="1" vertex="1">
          <mxGeometry x="-385.24" y="2023.9" width="70" height="30" as="geometry" />
        </mxCell>
        <mxCell id="Oj0tfPcwTxOMNZWfFIPI-235" value="tablet" style="text;html=1;align=center;verticalAlign=middle;resizable=0;points=[];autosize=1;strokeColor=none;fillColor=none;" parent="1" vertex="1">
          <mxGeometry x="-315.24" y="2149" width="50" height="30" as="geometry" />
        </mxCell>
        <mxCell id="Oj0tfPcwTxOMNZWfFIPI-236" value="tablet" style="text;html=1;align=center;verticalAlign=middle;resizable=0;points=[];autosize=1;strokeColor=none;fillColor=none;" parent="1" vertex="1">
          <mxGeometry x="-165.74" y="2149" width="50" height="30" as="geometry" />
        </mxCell>
        <mxCell id="Oj0tfPcwTxOMNZWfFIPI-237" value="wifi ap" style="text;html=1;align=center;verticalAlign=middle;resizable=0;points=[];autosize=1;strokeColor=none;fillColor=none;" parent="1" vertex="1">
          <mxGeometry x="-239.12" y="2042.1999999999998" width="60" height="30" as="geometry" />
        </mxCell>
        <mxCell id="Oj0tfPcwTxOMNZWfFIPI-238" value="printer" style="text;html=1;align=center;verticalAlign=middle;resizable=0;points=[];autosize=1;strokeColor=none;fillColor=none;" parent="1" vertex="1">
          <mxGeometry x="-650" y="1923" width="60" height="30" as="geometry" />
        </mxCell>
        <mxCell id="Oj0tfPcwTxOMNZWfFIPI-239" value="pc" style="text;html=1;align=center;verticalAlign=middle;resizable=0;points=[];autosize=1;strokeColor=none;fillColor=none;" parent="1" vertex="1">
          <mxGeometry x="-800" y="1923" width="40" height="30" as="geometry" />
        </mxCell>
        <mxCell id="Oj0tfPcwTxOMNZWfFIPI-240" value="" style="rounded=0;whiteSpace=wrap;html=1;fillColor=#bac8d3;strokeColor=#23445d;opacity=80;" parent="1" vertex="1">
          <mxGeometry x="-800" y="1866" width="320" height="313" as="geometry" />
        </mxCell>
        <mxCell id="Oj0tfPcwTxOMNZWfFIPI-241" style="edgeStyle=orthogonalEdgeStyle;rounded=0;orthogonalLoop=1;jettySize=auto;html=1;exitX=0.162;exitY=0.998;exitDx=0;exitDy=0;exitPerimeter=0;endArrow=none;startFill=0;" parent="1" source="Oj0tfPcwTxOMNZWfFIPI-245" target="Oj0tfPcwTxOMNZWfFIPI-250" edge="1">
          <mxGeometry relative="1" as="geometry">
            <Array as="points">
              <mxPoint x="-662.24" y="1960" />
              <mxPoint x="-732.24" y="1960" />
            </Array>
          </mxGeometry>
        </mxCell>
        <mxCell id="Oj0tfPcwTxOMNZWfFIPI-242" style="edgeStyle=orthogonalEdgeStyle;rounded=0;orthogonalLoop=1;jettySize=auto;html=1;exitX=0.609;exitY=0.996;exitDx=0;exitDy=0;exitPerimeter=0;endArrow=none;startFill=0;" parent="1" source="Oj0tfPcwTxOMNZWfFIPI-245" target="Oj0tfPcwTxOMNZWfFIPI-248" edge="1">
          <mxGeometry relative="1" as="geometry">
            <Array as="points">
              <mxPoint x="-639.24" y="1944" />
              <mxPoint x="-639.24" y="1944" />
              <mxPoint x="-639.24" y="2070" />
              <mxPoint x="-558.24" y="2070" />
            </Array>
          </mxGeometry>
        </mxCell>
        <mxCell id="Oj0tfPcwTxOMNZWfFIPI-243" style="edgeStyle=orthogonalEdgeStyle;rounded=0;orthogonalLoop=1;jettySize=auto;html=1;exitX=0.812;exitY=0.991;exitDx=0;exitDy=0;exitPerimeter=0;endArrow=none;startFill=0;" parent="1" source="Oj0tfPcwTxOMNZWfFIPI-245" target="Oj0tfPcwTxOMNZWfFIPI-249" edge="1">
          <mxGeometry relative="1" as="geometry">
            <Array as="points">
              <mxPoint x="-629.24" y="1995" />
            </Array>
          </mxGeometry>
        </mxCell>
        <mxCell id="Oj0tfPcwTxOMNZWfFIPI-244" style="edgeStyle=orthogonalEdgeStyle;rounded=0;orthogonalLoop=1;jettySize=auto;html=1;endArrow=none;startFill=0;exitX=0.394;exitY=0.993;exitDx=0;exitDy=0;exitPerimeter=0;" parent="1" source="Oj0tfPcwTxOMNZWfFIPI-245" target="Oj0tfPcwTxOMNZWfFIPI-256" edge="1">
          <mxGeometry relative="1" as="geometry">
            <mxPoint x="-655.24" y="1943" as="sourcePoint" />
            <Array as="points">
              <mxPoint x="-650.24" y="2100" />
            </Array>
          </mxGeometry>
        </mxCell>
        <mxCell id="Oj0tfPcwTxOMNZWfFIPI-245" value="" style="sketch=0;points=[[0.015,0.015,0],[0.985,0.015,0],[0.985,0.985,0],[0.015,0.985,0],[0.25,0,0],[0.5,0,0],[0.75,0,0],[1,0.25,0],[1,0.5,0],[1,0.75,0],[0.75,1,0],[0.5,1,0],[0.25,1,0],[0,0.75,0],[0,0.5,0],[0,0.25,0]];verticalLabelPosition=bottom;html=1;verticalAlign=top;aspect=fixed;align=center;pointerEvents=1;shape=mxgraph.cisco19.rect;prIcon=l2_switch;fillColor=#FAFAFA;strokeColor=#005073;" parent="1" vertex="1">
          <mxGeometry x="-670" y="1893" width="50" height="50" as="geometry" />
        </mxCell>
        <mxCell id="Oj0tfPcwTxOMNZWfFIPI-246" value="L2 switch" style="text;html=1;align=center;verticalAlign=middle;resizable=0;points=[];autosize=1;strokeColor=none;fillColor=none;" parent="1" vertex="1">
          <mxGeometry x="-620" y="1913" width="70" height="30" as="geometry" />
        </mxCell>
        <mxCell id="Oj0tfPcwTxOMNZWfFIPI-247" value="LOGISTICS" style="text;html=1;align=center;verticalAlign=middle;resizable=0;points=[];autosize=1;strokeColor=none;fillColor=none;" parent="1" vertex="1">
          <mxGeometry x="-800" y="1866" width="90" height="30" as="geometry" />
        </mxCell>
        <mxCell id="Oj0tfPcwTxOMNZWfFIPI-248" value="" style="image;points=[];aspect=fixed;html=1;align=center;shadow=0;dashed=0;image=img/lib/allied_telesis/computer_and_terminals/Personal_Computer_Wireless.svg;" parent="1" vertex="1">
          <mxGeometry x="-590" y="2085" width="63" height="64.2" as="geometry" />
        </mxCell>
        <mxCell id="Oj0tfPcwTxOMNZWfFIPI-249" value="" style="image;points=[];aspect=fixed;html=1;align=center;shadow=0;dashed=0;image=img/lib/allied_telesis/computer_and_terminals/Personal_Computer_Wireless.svg;" parent="1" vertex="1">
          <mxGeometry x="-600" y="1970.8000000000002" width="63" height="64.2" as="geometry" />
        </mxCell>
        <mxCell id="Oj0tfPcwTxOMNZWfFIPI-250" value="" style="image;points=[];aspect=fixed;html=1;align=center;shadow=0;dashed=0;image=img/lib/allied_telesis/computer_and_terminals/Personal_Computer_Wireless.svg;" parent="1" vertex="1">
          <mxGeometry x="-764.24" y="1970.8000000000002" width="63" height="64.2" as="geometry" />
        </mxCell>
        <mxCell id="Oj0tfPcwTxOMNZWfFIPI-251" value="computer" style="text;html=1;align=center;verticalAlign=middle;resizable=0;points=[];autosize=1;strokeColor=none;fillColor=none;" parent="1" vertex="1">
          <mxGeometry x="-552" y="2145" width="70" height="30" as="geometry" />
        </mxCell>
        <mxCell id="Oj0tfPcwTxOMNZWfFIPI-252" value="computer" style="text;html=1;align=center;verticalAlign=middle;resizable=0;points=[];autosize=1;strokeColor=none;fillColor=none;" parent="1" vertex="1">
          <mxGeometry x="-771.24" y="2042.1999999999998" width="70" height="30" as="geometry" />
        </mxCell>
        <mxCell id="Oj0tfPcwTxOMNZWfFIPI-253" value="computer" style="text;html=1;align=center;verticalAlign=middle;resizable=0;points=[];autosize=1;strokeColor=none;fillColor=none;" parent="1" vertex="1">
          <mxGeometry x="-552" y="2031" width="70" height="30" as="geometry" />
        </mxCell>
        <mxCell id="Oj0tfPcwTxOMNZWfFIPI-254" value="" style="verticalLabelPosition=bottom;html=1;verticalAlign=top;align=center;strokeColor=none;fillColor=#00BEF2;shape=mxgraph.azure.laptop;pointerEvents=1;" parent="1" vertex="1">
          <mxGeometry x="-163.74" y="2005" width="50" height="30" as="geometry" />
        </mxCell>
        <mxCell id="Oj0tfPcwTxOMNZWfFIPI-255" value="" style="fontColor=#0066CC;verticalAlign=top;verticalLabelPosition=bottom;labelPosition=center;align=center;html=1;outlineConnect=0;fillColor=#CCCCCC;strokeColor=#6881B3;gradientColor=none;gradientDirection=north;strokeWidth=2;shape=mxgraph.networks.pc;" parent="1" vertex="1">
          <mxGeometry x="-375.24" y="1981.9" width="60" height="42" as="geometry" />
        </mxCell>
        <mxCell id="Oj0tfPcwTxOMNZWfFIPI-256" value="" style="image;points=[];aspect=fixed;html=1;align=center;shadow=0;dashed=0;image=img/lib/allied_telesis/computer_and_terminals/Personal_Computer_Wireless.svg;" parent="1" vertex="1">
          <mxGeometry x="-756.24" y="2084.8" width="63" height="64.2" as="geometry" />
        </mxCell>
        <mxCell id="Oj0tfPcwTxOMNZWfFIPI-257" value="computer" style="text;html=1;align=center;verticalAlign=middle;resizable=0;points=[];autosize=1;strokeColor=none;fillColor=none;" parent="1" vertex="1">
          <mxGeometry x="-730.24" y="2149" width="70" height="30" as="geometry" />
        </mxCell>
        <mxCell id="Oj0tfPcwTxOMNZWfFIPI-258" value="" style="sketch=0;points=[[0.5,0,0],[1,0.5,0],[0.5,1,0],[0,0.5,0],[0.145,0.145,0],[0.8555,0.145,0],[0.855,0.8555,0],[0.145,0.855,0]];verticalLabelPosition=bottom;html=1;verticalAlign=top;aspect=fixed;align=center;pointerEvents=1;shape=mxgraph.cisco19.rect;prIcon=router;fillColor=#FAFAFA;strokeColor=#005073;" parent="1" vertex="1">
          <mxGeometry x="-250.24" y="1678.76" width="48.24" height="48.24" as="geometry" />
        </mxCell>
        <mxCell id="Oj0tfPcwTxOMNZWfFIPI-259" style="edgeStyle=orthogonalEdgeStyle;rounded=0;orthogonalLoop=1;jettySize=auto;html=1;exitX=0.75;exitY=1;exitDx=0;exitDy=0;exitPerimeter=0;entryX=0.5;entryY=0;entryDx=0;entryDy=0;entryPerimeter=0;endArrow=none;startFill=0;strokeWidth=2;" parent="1" source="Oj0tfPcwTxOMNZWfFIPI-260" target="Oj0tfPcwTxOMNZWfFIPI-214" edge="1">
          <mxGeometry relative="1" as="geometry">
            <mxPoint x="-75.24000000000001" y="1800" as="targetPoint" />
            <Array as="points">
              <mxPoint x="-54" y="1750" />
              <mxPoint x="155" y="1750" />
            </Array>
          </mxGeometry>
        </mxCell>
        <mxCell id="Oj0tfPcwTxOMNZWfFIPI-260" value="" style="sketch=0;points=[[0.015,0.015,0],[0.985,0.015,0],[0.985,0.985,0],[0.015,0.985,0],[0.25,0,0],[0.5,0,0],[0.75,0,0],[1,0.25,0],[1,0.5,0],[1,0.75,0],[0.75,1,0],[0.5,1,0],[0.25,1,0],[0,0.75,0],[0,0.5,0],[0,0.25,0]];verticalLabelPosition=bottom;html=1;verticalAlign=top;aspect=fixed;align=center;pointerEvents=1;shape=mxgraph.cisco19.rect;prIcon=l3_switch;fillColor=#FAFAFA;strokeColor=#005073;" parent="1" vertex="1">
          <mxGeometry x="-91.24000000000001" y="1678.24" width="50" height="50" as="geometry" />
        </mxCell>
        <mxCell id="Oj0tfPcwTxOMNZWfFIPI-261" style="edgeStyle=orthogonalEdgeStyle;rounded=0;orthogonalLoop=1;jettySize=auto;html=1;entryX=0;entryY=0.5;entryDx=0;entryDy=0;entryPerimeter=0;strokeWidth=3;endArrow=none;startFill=0;" parent="1" source="Oj0tfPcwTxOMNZWfFIPI-258" target="Oj0tfPcwTxOMNZWfFIPI-260" edge="1">
          <mxGeometry relative="1" as="geometry">
            <Array as="points">
              <mxPoint x="-90" y="1703" />
            </Array>
          </mxGeometry>
        </mxCell>
        <mxCell id="Oj0tfPcwTxOMNZWfFIPI-262" style="edgeStyle=orthogonalEdgeStyle;rounded=0;orthogonalLoop=1;jettySize=auto;html=1;exitX=0.25;exitY=1;exitDx=0;exitDy=0;exitPerimeter=0;endArrow=none;startFill=0;entryX=0.5;entryY=0;entryDx=0;entryDy=0;entryPerimeter=0;strokeWidth=2;" parent="1" source="Oj0tfPcwTxOMNZWfFIPI-260" target="Oj0tfPcwTxOMNZWfFIPI-245" edge="1">
          <mxGeometry relative="1" as="geometry">
            <mxPoint x="-644.24" y="1890" as="targetPoint" />
            <Array as="points">
              <mxPoint x="-79" y="1800" />
              <mxPoint x="-645" y="1800" />
            </Array>
          </mxGeometry>
        </mxCell>
        <mxCell id="Oj0tfPcwTxOMNZWfFIPI-263" style="edgeStyle=orthogonalEdgeStyle;rounded=0;orthogonalLoop=1;jettySize=auto;html=1;exitX=0.5;exitY=1;exitDx=0;exitDy=0;exitPerimeter=0;entryX=0.5;entryY=0;entryDx=0;entryDy=0;entryPerimeter=0;endArrow=none;startFill=0;strokeWidth=2;" parent="1" source="Oj0tfPcwTxOMNZWfFIPI-260" target="Oj0tfPcwTxOMNZWfFIPI-224" edge="1">
          <mxGeometry relative="1" as="geometry" />
        </mxCell>
        <mxCell id="Oj0tfPcwTxOMNZWfFIPI-264" value="L3 switch" style="text;html=1;align=center;verticalAlign=middle;resizable=0;points=[];autosize=1;strokeColor=none;fillColor=none;" parent="1" vertex="1">
          <mxGeometry x="-40" y="1710" width="70" height="30" as="geometry" />
        </mxCell>
        <mxCell id="Oj0tfPcwTxOMNZWfFIPI-265" value="Router (branch 2)&amp;nbsp;" style="text;html=1;align=center;verticalAlign=middle;resizable=0;points=[];autosize=1;strokeColor=none;fillColor=none;" parent="1" vertex="1">
          <mxGeometry x="-228.06" y="1720" width="120" height="30" as="geometry" />
        </mxCell>
        <mxCell id="Oj0tfPcwTxOMNZWfFIPI-266" style="edgeStyle=orthogonalEdgeStyle;rounded=0;orthogonalLoop=1;jettySize=auto;html=1;entryX=0;entryY=0.5;entryDx=0;entryDy=0;entryPerimeter=0;strokeWidth=3;strokeColor=#FF3333;endArrow=none;startFill=0;" parent="1" source="Oj0tfPcwTxOMNZWfFIPI-11" target="Oj0tfPcwTxOMNZWfFIPI-258" edge="1">
          <mxGeometry relative="1" as="geometry">
            <Array as="points">
              <mxPoint x="-860" y="335" />
              <mxPoint x="-860" y="1702" />
            </Array>
          </mxGeometry>
        </mxCell>
        <mxCell id="Oj0tfPcwTxOMNZWfFIPI-267" value="&lt;b&gt;&lt;font style=&quot;font-size: 16px;&quot;&gt;BRANCH 1 (Colombo)&lt;/font&gt;&lt;/b&gt;" style="text;html=1;align=center;verticalAlign=middle;resizable=0;points=[];autosize=1;strokeColor=none;fillColor=none;" parent="1" vertex="1">
          <mxGeometry x="132.62" y="1080" width="190" height="30" as="geometry" />
        </mxCell>
        <mxCell id="Oj0tfPcwTxOMNZWfFIPI-268" value="&lt;b&gt;&lt;font style=&quot;font-size: 16px;&quot;&gt;BRANCH 2 (Galle)&lt;/font&gt;&lt;/b&gt;" style="text;html=1;align=center;verticalAlign=middle;resizable=0;points=[];autosize=1;strokeColor=none;fillColor=none;" parent="1" vertex="1">
          <mxGeometry x="-835" y="1670" width="160" height="30" as="geometry" />
        </mxCell>
        <mxCell id="VeroT_hqkS72Edddchhl-5" value="&lt;b&gt;&lt;font style=&quot;font-size: 16px;&quot;&gt;HEADQUARTERS&lt;/font&gt;&lt;/b&gt;" style="text;html=1;align=center;verticalAlign=middle;resizable=0;points=[];autosize=1;strokeColor=none;fillColor=none;" vertex="1" parent="1">
          <mxGeometry x="-916.24" y="280" width="160" height="30" as="geometry" />
        </mxCell>
      </root>
    </mxGraphModel>
  </diagram>
</mxfile>
